M48
; DRILL file {KiCad (6.0.1)} date Thu Mar  7 18:12:02 2024
; FORMAT={-:-/ absolute / metric / decimal}
; #@! TF.CreationDate,2024-03-07T18:12:02-08:00
; #@! TF.GenerationSoftware,Kicad,Pcbnew,(6.0.1)
; #@! TF.FileFunction,Plated,1,2,PTH
FMAT,2
METRIC
; #@! TA.AperFunction,Plated,PTH,ViaDrill
T1C0.400
; #@! TA.AperFunction,Plated,PTH,ComponentDrill
T2C1.000
%
G90
G05
T1
X75.314Y-102.25
X75.314Y-108.75
X75.314Y-118.75
X83.064Y-105.25
X86.814Y-102.25
X86.814Y-118.75
X95.564Y-105.25
X97.988Y-102.25
X99.564Y-109.5
X102.064Y-107.5
X104.814Y-118.75
X109.314Y-102.25
X109.314Y-110.5
X109.314Y-118.75
T2
X77.16Y-113.71
X77.16Y-116.25
X79.7Y-113.71
X79.7Y-116.25
X82.24Y-113.71
X82.24Y-116.25
X84.78Y-113.71
X84.78Y-116.25
X93.406Y-111.165
X93.406Y-113.705
X95.946Y-111.165
X95.946Y-113.705
X98.486Y-111.165
X98.486Y-113.705
X101.026Y-111.165
X101.026Y-113.705
T0
M30
