%FSLAX45Y45*%
G04 Gerber Fmt 4.5, Leading zero omitted, Abs format (unit mm)*
G04 Created by KiCad (PCBNEW (6.0.1)) date 2024-03-07 18:12:03*
%MOMM*%
%LPD*%
G01*
G04 APERTURE LIST*
%TA.AperFunction,Profile*%
%ADD10C,0.150000*%
%TD*%
%ADD11C,0.200000*%
%ADD12C,0.040000*%
%ADD13C,0.100000*%
G04 APERTURE END LIST*
D10*
X8806429Y-12000000D02*
X7406429Y-12000000D01*
X10356429Y-11775000D02*
X10356429Y-12000000D01*
X11056429Y-10100000D02*
X11056429Y-12000000D01*
X8856429Y-11725000D02*
G75*
G03*
X8806429Y-11775000I0J-50000D01*
G01*
X10356429Y-11775000D02*
G75*
G03*
X10306429Y-11725000I-50000J0D01*
G01*
X7556429Y-10100000D02*
X7606429Y-10150000D01*
X7606429Y-10150000D02*
X8581429Y-10150000D01*
X7406429Y-12000000D02*
X7406429Y-10100000D01*
X10356429Y-12000000D02*
X11056429Y-12000000D01*
X8631429Y-10100000D02*
X11056429Y-10100000D01*
X10306429Y-11725000D02*
X8856429Y-11725000D01*
X8581429Y-10150000D02*
X8631429Y-10100000D01*
X7406429Y-10100000D02*
X7556429Y-10100000D01*
X8806429Y-11775000D02*
X8806429Y-12000000D01*
D11*
D12*
X7511429Y-10205000D02*
X7551429Y-10245000D01*
X7551429Y-10205000D02*
X7511429Y-10245000D01*
X7511429Y-10855000D02*
X7551429Y-10895000D01*
X7551429Y-10855000D02*
X7511429Y-10895000D01*
X7511429Y-11855000D02*
X7551429Y-11895000D01*
X7551429Y-11855000D02*
X7511429Y-11895000D01*
X8286429Y-10505000D02*
X8326429Y-10545000D01*
X8326429Y-10505000D02*
X8286429Y-10545000D01*
X8661429Y-10205000D02*
X8701429Y-10245000D01*
X8701429Y-10205000D02*
X8661429Y-10245000D01*
X8661429Y-11855000D02*
X8701429Y-11895000D01*
X8701429Y-11855000D02*
X8661429Y-11895000D01*
X9536429Y-10505000D02*
X9576429Y-10545000D01*
X9576429Y-10505000D02*
X9536429Y-10545000D01*
X9778829Y-10205000D02*
X9818829Y-10245000D01*
X9818829Y-10205000D02*
X9778829Y-10245000D01*
X9936429Y-10930000D02*
X9976429Y-10970000D01*
X9976429Y-10930000D02*
X9936429Y-10970000D01*
X10186429Y-10730000D02*
X10226429Y-10770000D01*
X10226429Y-10730000D02*
X10186429Y-10770000D01*
X10461429Y-11855000D02*
X10501429Y-11895000D01*
X10501429Y-11855000D02*
X10461429Y-11895000D01*
X10911429Y-10205000D02*
X10951429Y-10245000D01*
X10951429Y-10205000D02*
X10911429Y-10245000D01*
X10911429Y-11030000D02*
X10951429Y-11070000D01*
X10951429Y-11030000D02*
X10911429Y-11070000D01*
X10911429Y-11855000D02*
X10951429Y-11895000D01*
X10951429Y-11855000D02*
X10911429Y-11895000D01*
D13*
X7766029Y-11371000D02*
G75*
G03*
X7766029Y-11371000I-50000J0D01*
G01*
X7766029Y-11625000D02*
G75*
G03*
X7766029Y-11625000I-50000J0D01*
G01*
X8020029Y-11371000D02*
G75*
G03*
X8020029Y-11371000I-50000J0D01*
G01*
X8020029Y-11625000D02*
G75*
G03*
X8020029Y-11625000I-50000J0D01*
G01*
X8274029Y-11371000D02*
G75*
G03*
X8274029Y-11371000I-50000J0D01*
G01*
X8274029Y-11625000D02*
G75*
G03*
X8274029Y-11625000I-50000J0D01*
G01*
X8528029Y-11371000D02*
G75*
G03*
X8528029Y-11371000I-50000J0D01*
G01*
X8528029Y-11625000D02*
G75*
G03*
X8528029Y-11625000I-50000J0D01*
G01*
X9390629Y-11116500D02*
G75*
G03*
X9390629Y-11116500I-50000J0D01*
G01*
X9390629Y-11370500D02*
G75*
G03*
X9390629Y-11370500I-50000J0D01*
G01*
X9644629Y-11116500D02*
G75*
G03*
X9644629Y-11116500I-50000J0D01*
G01*
X9644629Y-11370500D02*
G75*
G03*
X9644629Y-11370500I-50000J0D01*
G01*
X9898629Y-11116500D02*
G75*
G03*
X9898629Y-11116500I-50000J0D01*
G01*
X9898629Y-11370500D02*
G75*
G03*
X9898629Y-11370500I-50000J0D01*
G01*
X10152629Y-11116500D02*
G75*
G03*
X10152629Y-11116500I-50000J0D01*
G01*
X10152629Y-11370500D02*
G75*
G03*
X10152629Y-11370500I-50000J0D01*
G01*
D11*
X7656548Y-12317976D02*
X7656548Y-12117976D01*
X7704167Y-12117976D01*
X7732738Y-12127500D01*
X7751786Y-12146548D01*
X7761309Y-12165595D01*
X7770833Y-12203690D01*
X7770833Y-12232262D01*
X7761309Y-12270357D01*
X7751786Y-12289405D01*
X7732738Y-12308452D01*
X7704167Y-12317976D01*
X7656548Y-12317976D01*
X7856548Y-12317976D02*
X7856548Y-12184643D01*
X7856548Y-12222738D02*
X7866071Y-12203690D01*
X7875595Y-12194167D01*
X7894643Y-12184643D01*
X7913690Y-12184643D01*
X7980357Y-12317976D02*
X7980357Y-12184643D01*
X7980357Y-12117976D02*
X7970833Y-12127500D01*
X7980357Y-12137024D01*
X7989881Y-12127500D01*
X7980357Y-12117976D01*
X7980357Y-12137024D01*
X8104167Y-12317976D02*
X8085119Y-12308452D01*
X8075595Y-12289405D01*
X8075595Y-12117976D01*
X8208929Y-12317976D02*
X8189881Y-12308452D01*
X8180357Y-12289405D01*
X8180357Y-12117976D01*
X8437500Y-12317976D02*
X8437500Y-12117976D01*
X8504167Y-12260833D01*
X8570833Y-12117976D01*
X8570833Y-12317976D01*
X8751786Y-12317976D02*
X8751786Y-12213214D01*
X8742262Y-12194167D01*
X8723214Y-12184643D01*
X8685119Y-12184643D01*
X8666071Y-12194167D01*
X8751786Y-12308452D02*
X8732738Y-12317976D01*
X8685119Y-12317976D01*
X8666071Y-12308452D01*
X8656548Y-12289405D01*
X8656548Y-12270357D01*
X8666071Y-12251309D01*
X8685119Y-12241786D01*
X8732738Y-12241786D01*
X8751786Y-12232262D01*
X8847024Y-12184643D02*
X8847024Y-12384643D01*
X8847024Y-12194167D02*
X8866071Y-12184643D01*
X8904167Y-12184643D01*
X8923214Y-12194167D01*
X8932738Y-12203690D01*
X8942262Y-12222738D01*
X8942262Y-12279881D01*
X8932738Y-12298928D01*
X8923214Y-12308452D01*
X8904167Y-12317976D01*
X8866071Y-12317976D01*
X8847024Y-12308452D01*
X9027976Y-12298928D02*
X9037500Y-12308452D01*
X9027976Y-12317976D01*
X9018452Y-12308452D01*
X9027976Y-12298928D01*
X9027976Y-12317976D01*
X9027976Y-12194167D02*
X9037500Y-12203690D01*
X9027976Y-12213214D01*
X9018452Y-12203690D01*
X9027976Y-12194167D01*
X9027976Y-12213214D01*
D12*
X7358929Y-12627500D02*
X7398929Y-12667500D01*
X7398929Y-12627500D02*
X7358929Y-12667500D01*
D11*
X7694643Y-12537976D02*
X7713690Y-12537976D01*
X7732738Y-12547500D01*
X7742262Y-12557024D01*
X7751786Y-12576071D01*
X7761309Y-12614167D01*
X7761309Y-12661786D01*
X7751786Y-12699881D01*
X7742262Y-12718928D01*
X7732738Y-12728452D01*
X7713690Y-12737976D01*
X7694643Y-12737976D01*
X7675595Y-12728452D01*
X7666071Y-12718928D01*
X7656548Y-12699881D01*
X7647024Y-12661786D01*
X7647024Y-12614167D01*
X7656548Y-12576071D01*
X7666071Y-12557024D01*
X7675595Y-12547500D01*
X7694643Y-12537976D01*
X7847024Y-12718928D02*
X7856548Y-12728452D01*
X7847024Y-12737976D01*
X7837500Y-12728452D01*
X7847024Y-12718928D01*
X7847024Y-12737976D01*
X8027976Y-12604643D02*
X8027976Y-12737976D01*
X7980357Y-12528452D02*
X7932738Y-12671309D01*
X8056548Y-12671309D01*
X8170833Y-12537976D02*
X8189881Y-12537976D01*
X8208929Y-12547500D01*
X8218452Y-12557024D01*
X8227976Y-12576071D01*
X8237500Y-12614167D01*
X8237500Y-12661786D01*
X8227976Y-12699881D01*
X8218452Y-12718928D01*
X8208929Y-12728452D01*
X8189881Y-12737976D01*
X8170833Y-12737976D01*
X8151786Y-12728452D01*
X8142262Y-12718928D01*
X8132738Y-12699881D01*
X8123214Y-12661786D01*
X8123214Y-12614167D01*
X8132738Y-12576071D01*
X8142262Y-12557024D01*
X8151786Y-12547500D01*
X8170833Y-12537976D01*
X8361309Y-12537976D02*
X8380357Y-12537976D01*
X8399405Y-12547500D01*
X8408929Y-12557024D01*
X8418452Y-12576071D01*
X8427976Y-12614167D01*
X8427976Y-12661786D01*
X8418452Y-12699881D01*
X8408929Y-12718928D01*
X8399405Y-12728452D01*
X8380357Y-12737976D01*
X8361309Y-12737976D01*
X8342262Y-12728452D01*
X8332738Y-12718928D01*
X8323214Y-12699881D01*
X8313690Y-12661786D01*
X8313690Y-12614167D01*
X8323214Y-12576071D01*
X8332738Y-12557024D01*
X8342262Y-12547500D01*
X8361309Y-12537976D01*
X8513691Y-12737976D02*
X8513691Y-12604643D01*
X8513691Y-12623690D02*
X8523214Y-12614167D01*
X8542262Y-12604643D01*
X8570833Y-12604643D01*
X8589881Y-12614167D01*
X8599405Y-12633214D01*
X8599405Y-12737976D01*
X8599405Y-12633214D02*
X8608929Y-12614167D01*
X8627976Y-12604643D01*
X8656548Y-12604643D01*
X8675595Y-12614167D01*
X8685119Y-12633214D01*
X8685119Y-12737976D01*
X8780357Y-12737976D02*
X8780357Y-12604643D01*
X8780357Y-12623690D02*
X8789881Y-12614167D01*
X8808929Y-12604643D01*
X8837500Y-12604643D01*
X8856548Y-12614167D01*
X8866071Y-12633214D01*
X8866071Y-12737976D01*
X8866071Y-12633214D02*
X8875595Y-12614167D01*
X8894643Y-12604643D01*
X8923214Y-12604643D01*
X8942262Y-12614167D01*
X8951786Y-12633214D01*
X8951786Y-12737976D01*
X9342262Y-12528452D02*
X9170833Y-12785595D01*
X9599405Y-12537976D02*
X9618452Y-12537976D01*
X9637500Y-12547500D01*
X9647024Y-12557024D01*
X9656548Y-12576071D01*
X9666071Y-12614167D01*
X9666071Y-12661786D01*
X9656548Y-12699881D01*
X9647024Y-12718928D01*
X9637500Y-12728452D01*
X9618452Y-12737976D01*
X9599405Y-12737976D01*
X9580357Y-12728452D01*
X9570833Y-12718928D01*
X9561310Y-12699881D01*
X9551786Y-12661786D01*
X9551786Y-12614167D01*
X9561310Y-12576071D01*
X9570833Y-12557024D01*
X9580357Y-12547500D01*
X9599405Y-12537976D01*
X9751786Y-12718928D02*
X9761310Y-12728452D01*
X9751786Y-12737976D01*
X9742262Y-12728452D01*
X9751786Y-12718928D01*
X9751786Y-12737976D01*
X9885119Y-12537976D02*
X9904167Y-12537976D01*
X9923214Y-12547500D01*
X9932738Y-12557024D01*
X9942262Y-12576071D01*
X9951786Y-12614167D01*
X9951786Y-12661786D01*
X9942262Y-12699881D01*
X9932738Y-12718928D01*
X9923214Y-12728452D01*
X9904167Y-12737976D01*
X9885119Y-12737976D01*
X9866071Y-12728452D01*
X9856548Y-12718928D01*
X9847024Y-12699881D01*
X9837500Y-12661786D01*
X9837500Y-12614167D01*
X9847024Y-12576071D01*
X9856548Y-12557024D01*
X9866071Y-12547500D01*
X9885119Y-12537976D01*
X10142262Y-12737976D02*
X10027976Y-12737976D01*
X10085119Y-12737976D02*
X10085119Y-12537976D01*
X10066071Y-12566548D01*
X10047024Y-12585595D01*
X10027976Y-12595119D01*
X10323214Y-12537976D02*
X10227976Y-12537976D01*
X10218452Y-12633214D01*
X10227976Y-12623690D01*
X10247024Y-12614167D01*
X10294643Y-12614167D01*
X10313691Y-12623690D01*
X10323214Y-12633214D01*
X10332738Y-12652262D01*
X10332738Y-12699881D01*
X10323214Y-12718928D01*
X10313691Y-12728452D01*
X10294643Y-12737976D01*
X10247024Y-12737976D01*
X10227976Y-12728452D01*
X10218452Y-12718928D01*
X10399405Y-12537976D02*
X10532738Y-12537976D01*
X10447024Y-12737976D01*
X10599405Y-12537976D02*
X10599405Y-12576071D01*
X10675595Y-12537976D02*
X10675595Y-12576071D01*
X10970833Y-12814167D02*
X10961310Y-12804643D01*
X10942262Y-12776071D01*
X10932738Y-12757024D01*
X10923214Y-12728452D01*
X10913691Y-12680833D01*
X10913691Y-12642738D01*
X10923214Y-12595119D01*
X10932738Y-12566548D01*
X10942262Y-12547500D01*
X10961310Y-12518928D01*
X10970833Y-12509405D01*
X11151786Y-12737976D02*
X11037500Y-12737976D01*
X11094643Y-12737976D02*
X11094643Y-12537976D01*
X11075595Y-12566548D01*
X11056548Y-12585595D01*
X11037500Y-12595119D01*
X11323214Y-12604643D02*
X11323214Y-12737976D01*
X11275595Y-12528452D02*
X11227976Y-12671309D01*
X11351786Y-12671309D01*
X11580357Y-12737976D02*
X11580357Y-12537976D01*
X11666071Y-12737976D02*
X11666071Y-12633214D01*
X11656548Y-12614167D01*
X11637500Y-12604643D01*
X11608928Y-12604643D01*
X11589881Y-12614167D01*
X11580357Y-12623690D01*
X11789881Y-12737976D02*
X11770833Y-12728452D01*
X11761309Y-12718928D01*
X11751786Y-12699881D01*
X11751786Y-12642738D01*
X11761309Y-12623690D01*
X11770833Y-12614167D01*
X11789881Y-12604643D01*
X11818452Y-12604643D01*
X11837500Y-12614167D01*
X11847024Y-12623690D01*
X11856548Y-12642738D01*
X11856548Y-12699881D01*
X11847024Y-12718928D01*
X11837500Y-12728452D01*
X11818452Y-12737976D01*
X11789881Y-12737976D01*
X11970833Y-12737976D02*
X11951786Y-12728452D01*
X11942262Y-12709405D01*
X11942262Y-12537976D01*
X12123214Y-12728452D02*
X12104167Y-12737976D01*
X12066071Y-12737976D01*
X12047024Y-12728452D01*
X12037500Y-12709405D01*
X12037500Y-12633214D01*
X12047024Y-12614167D01*
X12066071Y-12604643D01*
X12104167Y-12604643D01*
X12123214Y-12614167D01*
X12132738Y-12633214D01*
X12132738Y-12652262D01*
X12037500Y-12671309D01*
X12208928Y-12728452D02*
X12227976Y-12737976D01*
X12266071Y-12737976D01*
X12285119Y-12728452D01*
X12294643Y-12709405D01*
X12294643Y-12699881D01*
X12285119Y-12680833D01*
X12266071Y-12671309D01*
X12237500Y-12671309D01*
X12218452Y-12661786D01*
X12208928Y-12642738D01*
X12208928Y-12633214D01*
X12218452Y-12614167D01*
X12237500Y-12604643D01*
X12266071Y-12604643D01*
X12285119Y-12614167D01*
X12361309Y-12814167D02*
X12370833Y-12804643D01*
X12389881Y-12776071D01*
X12399405Y-12757024D01*
X12408928Y-12728452D01*
X12418452Y-12680833D01*
X12418452Y-12642738D01*
X12408928Y-12595119D01*
X12399405Y-12566548D01*
X12389881Y-12547500D01*
X12370833Y-12518928D01*
X12361309Y-12509405D01*
D13*
X7398929Y-12911500D02*
G75*
G03*
X7398929Y-12911500I-50000J0D01*
G01*
D11*
X7761309Y-13001976D02*
X7647024Y-13001976D01*
X7704167Y-13001976D02*
X7704167Y-12801976D01*
X7685119Y-12830548D01*
X7666071Y-12849595D01*
X7647024Y-12859119D01*
X7847024Y-12982928D02*
X7856548Y-12992452D01*
X7847024Y-13001976D01*
X7837500Y-12992452D01*
X7847024Y-12982928D01*
X7847024Y-13001976D01*
X7980357Y-12801976D02*
X7999405Y-12801976D01*
X8018452Y-12811500D01*
X8027976Y-12821024D01*
X8037500Y-12840071D01*
X8047024Y-12878167D01*
X8047024Y-12925786D01*
X8037500Y-12963881D01*
X8027976Y-12982928D01*
X8018452Y-12992452D01*
X7999405Y-13001976D01*
X7980357Y-13001976D01*
X7961309Y-12992452D01*
X7951786Y-12982928D01*
X7942262Y-12963881D01*
X7932738Y-12925786D01*
X7932738Y-12878167D01*
X7942262Y-12840071D01*
X7951786Y-12821024D01*
X7961309Y-12811500D01*
X7980357Y-12801976D01*
X8170833Y-12801976D02*
X8189881Y-12801976D01*
X8208929Y-12811500D01*
X8218452Y-12821024D01*
X8227976Y-12840071D01*
X8237500Y-12878167D01*
X8237500Y-12925786D01*
X8227976Y-12963881D01*
X8218452Y-12982928D01*
X8208929Y-12992452D01*
X8189881Y-13001976D01*
X8170833Y-13001976D01*
X8151786Y-12992452D01*
X8142262Y-12982928D01*
X8132738Y-12963881D01*
X8123214Y-12925786D01*
X8123214Y-12878167D01*
X8132738Y-12840071D01*
X8142262Y-12821024D01*
X8151786Y-12811500D01*
X8170833Y-12801976D01*
X8361309Y-12801976D02*
X8380357Y-12801976D01*
X8399405Y-12811500D01*
X8408929Y-12821024D01*
X8418452Y-12840071D01*
X8427976Y-12878167D01*
X8427976Y-12925786D01*
X8418452Y-12963881D01*
X8408929Y-12982928D01*
X8399405Y-12992452D01*
X8380357Y-13001976D01*
X8361309Y-13001976D01*
X8342262Y-12992452D01*
X8332738Y-12982928D01*
X8323214Y-12963881D01*
X8313690Y-12925786D01*
X8313690Y-12878167D01*
X8323214Y-12840071D01*
X8332738Y-12821024D01*
X8342262Y-12811500D01*
X8361309Y-12801976D01*
X8513691Y-13001976D02*
X8513691Y-12868643D01*
X8513691Y-12887690D02*
X8523214Y-12878167D01*
X8542262Y-12868643D01*
X8570833Y-12868643D01*
X8589881Y-12878167D01*
X8599405Y-12897214D01*
X8599405Y-13001976D01*
X8599405Y-12897214D02*
X8608929Y-12878167D01*
X8627976Y-12868643D01*
X8656548Y-12868643D01*
X8675595Y-12878167D01*
X8685119Y-12897214D01*
X8685119Y-13001976D01*
X8780357Y-13001976D02*
X8780357Y-12868643D01*
X8780357Y-12887690D02*
X8789881Y-12878167D01*
X8808929Y-12868643D01*
X8837500Y-12868643D01*
X8856548Y-12878167D01*
X8866071Y-12897214D01*
X8866071Y-13001976D01*
X8866071Y-12897214D02*
X8875595Y-12878167D01*
X8894643Y-12868643D01*
X8923214Y-12868643D01*
X8942262Y-12878167D01*
X8951786Y-12897214D01*
X8951786Y-13001976D01*
X9342262Y-12792452D02*
X9170833Y-13049595D01*
X9599405Y-12801976D02*
X9618452Y-12801976D01*
X9637500Y-12811500D01*
X9647024Y-12821024D01*
X9656548Y-12840071D01*
X9666071Y-12878167D01*
X9666071Y-12925786D01*
X9656548Y-12963881D01*
X9647024Y-12982928D01*
X9637500Y-12992452D01*
X9618452Y-13001976D01*
X9599405Y-13001976D01*
X9580357Y-12992452D01*
X9570833Y-12982928D01*
X9561310Y-12963881D01*
X9551786Y-12925786D01*
X9551786Y-12878167D01*
X9561310Y-12840071D01*
X9570833Y-12821024D01*
X9580357Y-12811500D01*
X9599405Y-12801976D01*
X9751786Y-12982928D02*
X9761310Y-12992452D01*
X9751786Y-13001976D01*
X9742262Y-12992452D01*
X9751786Y-12982928D01*
X9751786Y-13001976D01*
X9885119Y-12801976D02*
X9904167Y-12801976D01*
X9923214Y-12811500D01*
X9932738Y-12821024D01*
X9942262Y-12840071D01*
X9951786Y-12878167D01*
X9951786Y-12925786D01*
X9942262Y-12963881D01*
X9932738Y-12982928D01*
X9923214Y-12992452D01*
X9904167Y-13001976D01*
X9885119Y-13001976D01*
X9866071Y-12992452D01*
X9856548Y-12982928D01*
X9847024Y-12963881D01*
X9837500Y-12925786D01*
X9837500Y-12878167D01*
X9847024Y-12840071D01*
X9856548Y-12821024D01*
X9866071Y-12811500D01*
X9885119Y-12801976D01*
X10018452Y-12801976D02*
X10142262Y-12801976D01*
X10075595Y-12878167D01*
X10104167Y-12878167D01*
X10123214Y-12887690D01*
X10132738Y-12897214D01*
X10142262Y-12916262D01*
X10142262Y-12963881D01*
X10132738Y-12982928D01*
X10123214Y-12992452D01*
X10104167Y-13001976D01*
X10047024Y-13001976D01*
X10027976Y-12992452D01*
X10018452Y-12982928D01*
X10237500Y-13001976D02*
X10275595Y-13001976D01*
X10294643Y-12992452D01*
X10304167Y-12982928D01*
X10323214Y-12954357D01*
X10332738Y-12916262D01*
X10332738Y-12840071D01*
X10323214Y-12821024D01*
X10313691Y-12811500D01*
X10294643Y-12801976D01*
X10256548Y-12801976D01*
X10237500Y-12811500D01*
X10227976Y-12821024D01*
X10218452Y-12840071D01*
X10218452Y-12887690D01*
X10227976Y-12906738D01*
X10237500Y-12916262D01*
X10256548Y-12925786D01*
X10294643Y-12925786D01*
X10313691Y-12916262D01*
X10323214Y-12906738D01*
X10332738Y-12887690D01*
X10504167Y-12868643D02*
X10504167Y-13001976D01*
X10456548Y-12792452D02*
X10408929Y-12935309D01*
X10532738Y-12935309D01*
X10599405Y-12801976D02*
X10599405Y-12840071D01*
X10675595Y-12801976D02*
X10675595Y-12840071D01*
X10970833Y-13078167D02*
X10961310Y-13068643D01*
X10942262Y-13040071D01*
X10932738Y-13021024D01*
X10923214Y-12992452D01*
X10913691Y-12944833D01*
X10913691Y-12906738D01*
X10923214Y-12859119D01*
X10932738Y-12830548D01*
X10942262Y-12811500D01*
X10961310Y-12782928D01*
X10970833Y-12773405D01*
X11151786Y-13001976D02*
X11037500Y-13001976D01*
X11094643Y-13001976D02*
X11094643Y-12801976D01*
X11075595Y-12830548D01*
X11056548Y-12849595D01*
X11037500Y-12859119D01*
X11323214Y-12801976D02*
X11285119Y-12801976D01*
X11266071Y-12811500D01*
X11256548Y-12821024D01*
X11237500Y-12849595D01*
X11227976Y-12887690D01*
X11227976Y-12963881D01*
X11237500Y-12982928D01*
X11247024Y-12992452D01*
X11266071Y-13001976D01*
X11304167Y-13001976D01*
X11323214Y-12992452D01*
X11332738Y-12982928D01*
X11342262Y-12963881D01*
X11342262Y-12916262D01*
X11332738Y-12897214D01*
X11323214Y-12887690D01*
X11304167Y-12878167D01*
X11266071Y-12878167D01*
X11247024Y-12887690D01*
X11237500Y-12897214D01*
X11227976Y-12916262D01*
X11580357Y-13001976D02*
X11580357Y-12801976D01*
X11666071Y-13001976D02*
X11666071Y-12897214D01*
X11656548Y-12878167D01*
X11637500Y-12868643D01*
X11608928Y-12868643D01*
X11589881Y-12878167D01*
X11580357Y-12887690D01*
X11789881Y-13001976D02*
X11770833Y-12992452D01*
X11761309Y-12982928D01*
X11751786Y-12963881D01*
X11751786Y-12906738D01*
X11761309Y-12887690D01*
X11770833Y-12878167D01*
X11789881Y-12868643D01*
X11818452Y-12868643D01*
X11837500Y-12878167D01*
X11847024Y-12887690D01*
X11856548Y-12906738D01*
X11856548Y-12963881D01*
X11847024Y-12982928D01*
X11837500Y-12992452D01*
X11818452Y-13001976D01*
X11789881Y-13001976D01*
X11970833Y-13001976D02*
X11951786Y-12992452D01*
X11942262Y-12973405D01*
X11942262Y-12801976D01*
X12123214Y-12992452D02*
X12104167Y-13001976D01*
X12066071Y-13001976D01*
X12047024Y-12992452D01*
X12037500Y-12973405D01*
X12037500Y-12897214D01*
X12047024Y-12878167D01*
X12066071Y-12868643D01*
X12104167Y-12868643D01*
X12123214Y-12878167D01*
X12132738Y-12897214D01*
X12132738Y-12916262D01*
X12037500Y-12935309D01*
X12208928Y-12992452D02*
X12227976Y-13001976D01*
X12266071Y-13001976D01*
X12285119Y-12992452D01*
X12294643Y-12973405D01*
X12294643Y-12963881D01*
X12285119Y-12944833D01*
X12266071Y-12935309D01*
X12237500Y-12935309D01*
X12218452Y-12925786D01*
X12208928Y-12906738D01*
X12208928Y-12897214D01*
X12218452Y-12878167D01*
X12237500Y-12868643D01*
X12266071Y-12868643D01*
X12285119Y-12878167D01*
X12361309Y-13078167D02*
X12370833Y-13068643D01*
X12389881Y-13040071D01*
X12399405Y-13021024D01*
X12408928Y-12992452D01*
X12418452Y-12944833D01*
X12418452Y-12906738D01*
X12408928Y-12859119D01*
X12399405Y-12830548D01*
X12389881Y-12811500D01*
X12370833Y-12782928D01*
X12361309Y-12773405D01*
M02*
