%FSLAX45Y45*%
G04 Gerber Fmt 4.5, Leading zero omitted, Abs format (unit mm)*
G04 Created by KiCad (PCBNEW (6.0.1)) date 2024-03-07 18:12:04*
%MOMM*%
%LPD*%
G01*
G04 APERTURE LIST*
%TA.AperFunction,Profile*%
%ADD10C,0.150000*%
%TD*%
%ADD11C,0.200000*%
G04 APERTURE END LIST*
D10*
X8806429Y-12000000D02*
X7406429Y-12000000D01*
X10356429Y-11775000D02*
X10356429Y-12000000D01*
X11056429Y-10100000D02*
X11056429Y-12000000D01*
X8856429Y-11725000D02*
G75*
G03*
X8806429Y-11775000I0J-50000D01*
G01*
X10356429Y-11775000D02*
G75*
G03*
X10306429Y-11725000I-50000J0D01*
G01*
X7556429Y-10100000D02*
X7606429Y-10150000D01*
X7606429Y-10150000D02*
X8581429Y-10150000D01*
X7406429Y-12000000D02*
X7406429Y-10100000D01*
X10356429Y-12000000D02*
X11056429Y-12000000D01*
X8631429Y-10100000D02*
X11056429Y-10100000D01*
X10306429Y-11725000D02*
X8856429Y-11725000D01*
X8581429Y-10150000D02*
X8631429Y-10100000D01*
X7406429Y-10100000D02*
X7556429Y-10100000D01*
X8806429Y-11775000D02*
X8806429Y-12000000D01*
D11*
X7656548Y-12317976D02*
X7656548Y-12117976D01*
X7704167Y-12117976D01*
X7732738Y-12127500D01*
X7751786Y-12146548D01*
X7761309Y-12165595D01*
X7770833Y-12203690D01*
X7770833Y-12232262D01*
X7761309Y-12270357D01*
X7751786Y-12289405D01*
X7732738Y-12308452D01*
X7704167Y-12317976D01*
X7656548Y-12317976D01*
X7856548Y-12317976D02*
X7856548Y-12184643D01*
X7856548Y-12222738D02*
X7866071Y-12203690D01*
X7875595Y-12194167D01*
X7894643Y-12184643D01*
X7913690Y-12184643D01*
X7980357Y-12317976D02*
X7980357Y-12184643D01*
X7980357Y-12117976D02*
X7970833Y-12127500D01*
X7980357Y-12137024D01*
X7989881Y-12127500D01*
X7980357Y-12117976D01*
X7980357Y-12137024D01*
X8104167Y-12317976D02*
X8085119Y-12308452D01*
X8075595Y-12289405D01*
X8075595Y-12117976D01*
X8208929Y-12317976D02*
X8189881Y-12308452D01*
X8180357Y-12289405D01*
X8180357Y-12117976D01*
X8437500Y-12317976D02*
X8437500Y-12117976D01*
X8504167Y-12260833D01*
X8570833Y-12117976D01*
X8570833Y-12317976D01*
X8751786Y-12317976D02*
X8751786Y-12213214D01*
X8742262Y-12194167D01*
X8723214Y-12184643D01*
X8685119Y-12184643D01*
X8666071Y-12194167D01*
X8751786Y-12308452D02*
X8732738Y-12317976D01*
X8685119Y-12317976D01*
X8666071Y-12308452D01*
X8656548Y-12289405D01*
X8656548Y-12270357D01*
X8666071Y-12251309D01*
X8685119Y-12241786D01*
X8732738Y-12241786D01*
X8751786Y-12232262D01*
X8847024Y-12184643D02*
X8847024Y-12384643D01*
X8847024Y-12194167D02*
X8866071Y-12184643D01*
X8904167Y-12184643D01*
X8923214Y-12194167D01*
X8932738Y-12203690D01*
X8942262Y-12222738D01*
X8942262Y-12279881D01*
X8932738Y-12298928D01*
X8923214Y-12308452D01*
X8904167Y-12317976D01*
X8866071Y-12317976D01*
X8847024Y-12308452D01*
X9027976Y-12298928D02*
X9037500Y-12308452D01*
X9027976Y-12317976D01*
X9018452Y-12308452D01*
X9027976Y-12298928D01*
X9027976Y-12317976D01*
X9027976Y-12194167D02*
X9037500Y-12203690D01*
X9027976Y-12213214D01*
X9018452Y-12203690D01*
X9027976Y-12194167D01*
X9027976Y-12213214D01*
M02*
