%TF.GenerationSoftware,KiCad,Pcbnew,(6.0.1)*%
%TF.CreationDate,2024-03-07T18:11:34-08:00*%
%TF.ProjectId,Gamecube_SD2SP2PRO,47616d65-6375-4626-955f-534432535032,rev?*%
%TF.SameCoordinates,Original*%
%TF.FileFunction,Copper,L1,Top*%
%TF.FilePolarity,Positive*%
%FSLAX46Y46*%
G04 Gerber Fmt 4.6, Leading zero omitted, Abs format (unit mm)*
G04 Created by KiCad (PCBNEW (6.0.1)) date 2024-03-07 18:11:34*
%MOMM*%
%LPD*%
G01*
G04 APERTURE LIST*
%TA.AperFunction,ComponentPad*%
%ADD10R,1.700000X1.700000*%
%TD*%
%TA.AperFunction,ComponentPad*%
%ADD11O,1.700000X1.700000*%
%TD*%
%TA.AperFunction,ViaPad*%
%ADD12C,0.800000*%
%TD*%
%TA.AperFunction,Conductor*%
%ADD13C,1.000000*%
%TD*%
%TA.AperFunction,Conductor*%
%ADD14C,0.250000*%
%TD*%
G04 APERTURE END LIST*
D10*
X77160286Y-116250000D03*
D11*
X77160286Y-113710000D03*
X79700286Y-116250000D03*
X79700286Y-113710000D03*
X82240286Y-116250000D03*
X82240286Y-113710000D03*
X84780286Y-116250000D03*
X84780286Y-113710000D03*
D10*
X101026286Y-111165000D03*
D11*
X101026286Y-113705000D03*
X98486286Y-111165000D03*
X98486286Y-113705000D03*
X95946286Y-111165000D03*
X95946286Y-113705000D03*
X93406286Y-111165000D03*
X93406286Y-113705000D03*
D12*
X97988286Y-102250000D03*
X109314286Y-110500000D03*
X104814286Y-118750000D03*
X102064286Y-107500000D03*
X109314286Y-102250000D03*
X86814286Y-118750000D03*
X75314286Y-102250000D03*
X83064286Y-105250000D03*
X99564286Y-109500000D03*
X75314286Y-118750000D03*
X95564286Y-105250000D03*
X109314286Y-118750000D03*
X86814286Y-102250000D03*
X75314286Y-108750000D03*
D13*
X96210286Y-103804000D02*
X101026286Y-108620000D01*
X82367286Y-103804000D02*
X96210286Y-103804000D01*
X76525286Y-116250000D02*
X75128286Y-114853000D01*
X77160286Y-116250000D02*
X76525286Y-116250000D01*
X75128286Y-114853000D02*
X75128286Y-111043000D01*
X75128286Y-111043000D02*
X82367286Y-103804000D01*
X101026286Y-108620000D02*
X101026286Y-111165000D01*
D14*
X79700286Y-116250000D02*
X78430286Y-114980000D01*
X78430286Y-111424000D02*
X83764286Y-106090000D01*
X94940286Y-106090000D02*
X98486286Y-109636000D01*
X98486286Y-109636000D02*
X98486286Y-111165000D01*
X78430286Y-114980000D02*
X78430286Y-111424000D01*
X83764286Y-106090000D02*
X94940286Y-106090000D01*
X94432286Y-107106000D02*
X84272286Y-107106000D01*
X84272286Y-107106000D02*
X79700286Y-111678000D01*
X97226286Y-112445000D02*
X97226286Y-109900000D01*
X79700286Y-111678000D02*
X79700286Y-113710000D01*
X97226286Y-109900000D02*
X94432286Y-107106000D01*
X98486286Y-113705000D02*
X97226286Y-112445000D01*
X93924286Y-108122000D02*
X95946286Y-110144000D01*
X80970286Y-114980000D02*
X80970286Y-111932000D01*
X84780286Y-108122000D02*
X93924286Y-108122000D01*
X95946286Y-110144000D02*
X95946286Y-111165000D01*
X80970286Y-111932000D02*
X84780286Y-108122000D01*
X82240286Y-116250000D02*
X80970286Y-114980000D01*
X82240286Y-112186000D02*
X82240286Y-113710000D01*
X94686286Y-112445000D02*
X94686286Y-110408000D01*
X94686286Y-110408000D02*
X93416286Y-109138000D01*
X85288286Y-109138000D02*
X82240286Y-112186000D01*
X95946286Y-113705000D02*
X94686286Y-112445000D01*
X93416286Y-109138000D02*
X85288286Y-109138000D01*
X83510286Y-112440000D02*
X85796286Y-110154000D01*
X84780286Y-116250000D02*
X83510286Y-114980000D01*
X85796286Y-110154000D02*
X92395286Y-110154000D01*
X83510286Y-114980000D02*
X83510286Y-112440000D01*
X92395286Y-110154000D02*
X93406286Y-111165000D01*
%TA.AperFunction,Conductor*%
G36*
X75369796Y-101528002D02*
G01*
X75390771Y-101544905D01*
X75654857Y-101808992D01*
X75662466Y-101818516D01*
X75662836Y-101818202D01*
X75668658Y-101825043D01*
X75673446Y-101832631D01*
X75680173Y-101838572D01*
X75713750Y-101868226D01*
X75719438Y-101873573D01*
X75730869Y-101885004D01*
X75734460Y-101887695D01*
X75734462Y-101887697D01*
X75739228Y-101891269D01*
X75747070Y-101897653D01*
X75782514Y-101928956D01*
X75790641Y-101932772D01*
X75793169Y-101934432D01*
X75807998Y-101943342D01*
X75810639Y-101944788D01*
X75817824Y-101950173D01*
X75826232Y-101953325D01*
X75862114Y-101966777D01*
X75871432Y-101970704D01*
X75906104Y-101986982D01*
X75914234Y-101990799D01*
X75923109Y-101992181D01*
X75925992Y-101993062D01*
X75942737Y-101997455D01*
X75945672Y-101998100D01*
X75954079Y-102001252D01*
X75983512Y-102003439D01*
X76001237Y-102004757D01*
X76011277Y-102005909D01*
X76018337Y-102007008D01*
X76024709Y-102008000D01*
X76040201Y-102008000D01*
X76049539Y-102008346D01*
X76090242Y-102011371D01*
X76090243Y-102011371D01*
X76099193Y-102012036D01*
X76107975Y-102010161D01*
X76116289Y-102009594D01*
X76131396Y-102008000D01*
X85743266Y-102008000D01*
X85755382Y-102009354D01*
X85755421Y-102008870D01*
X85764372Y-102009590D01*
X85773126Y-102011571D01*
X85826787Y-102008242D01*
X85834589Y-102008000D01*
X85850763Y-102008000D01*
X85855204Y-102007364D01*
X85855205Y-102007364D01*
X85861099Y-102006520D01*
X85871158Y-102005490D01*
X85888482Y-102004415D01*
X85909403Y-102003117D01*
X85909405Y-102003117D01*
X85918361Y-102002561D01*
X85926799Y-101999515D01*
X85929710Y-101998912D01*
X85946578Y-101994706D01*
X85949445Y-101993868D01*
X85958331Y-101992595D01*
X85966502Y-101988880D01*
X85966505Y-101988879D01*
X86001378Y-101973023D01*
X86010747Y-101969209D01*
X86046787Y-101956199D01*
X86046791Y-101956197D01*
X86055231Y-101953150D01*
X86062480Y-101947854D01*
X86065115Y-101946453D01*
X86080100Y-101937697D01*
X86082625Y-101936082D01*
X86090796Y-101932367D01*
X86126624Y-101901496D01*
X86134542Y-101895209D01*
X86141572Y-101890073D01*
X86141575Y-101890071D01*
X86145511Y-101887195D01*
X86156463Y-101876243D01*
X86163311Y-101869885D01*
X86194230Y-101843244D01*
X86194234Y-101843239D01*
X86201033Y-101837381D01*
X86205914Y-101829850D01*
X86211390Y-101823573D01*
X86220952Y-101811754D01*
X86487803Y-101544904D01*
X86550115Y-101510879D01*
X86576898Y-101508000D01*
X109930286Y-101508000D01*
X109998407Y-101528002D01*
X110044900Y-101581658D01*
X110056286Y-101634000D01*
X110056286Y-119366000D01*
X110036284Y-119434121D01*
X109982628Y-119480614D01*
X109930286Y-119492000D01*
X104198286Y-119492000D01*
X104130165Y-119471998D01*
X104083672Y-119418342D01*
X104072286Y-119366000D01*
X104072286Y-117803206D01*
X104074032Y-117782302D01*
X104076550Y-117767334D01*
X104077357Y-117762538D01*
X104077510Y-117749999D01*
X104076821Y-117745192D01*
X104076821Y-117745185D01*
X104074471Y-117728780D01*
X104073677Y-117721898D01*
X104063983Y-117611097D01*
X104060763Y-117574293D01*
X104054419Y-117550615D01*
X104016537Y-117409237D01*
X104016536Y-117409235D01*
X104015114Y-117403927D01*
X103984510Y-117338297D01*
X103942896Y-117249056D01*
X103942894Y-117249053D01*
X103940573Y-117244075D01*
X103839408Y-117099596D01*
X103714690Y-116974878D01*
X103570211Y-116873713D01*
X103565233Y-116871392D01*
X103565230Y-116871390D01*
X103415341Y-116801495D01*
X103415339Y-116801494D01*
X103410359Y-116799172D01*
X103405051Y-116797750D01*
X103405049Y-116797749D01*
X103245308Y-116754947D01*
X103245307Y-116754947D01*
X103239993Y-116753523D01*
X103234507Y-116753043D01*
X103234501Y-116753042D01*
X103110518Y-116742194D01*
X103100595Y-116740928D01*
X103081619Y-116737735D01*
X103081614Y-116737735D01*
X103076826Y-116736929D01*
X103070527Y-116736852D01*
X103069146Y-116736835D01*
X103069142Y-116736835D01*
X103064287Y-116736776D01*
X103040002Y-116740254D01*
X103036699Y-116740727D01*
X103018836Y-116742000D01*
X88617492Y-116742000D01*
X88596588Y-116740254D01*
X88593422Y-116739721D01*
X88576824Y-116736929D01*
X88570466Y-116736851D01*
X88569143Y-116736835D01*
X88569139Y-116736835D01*
X88564285Y-116736776D01*
X88559478Y-116737465D01*
X88559471Y-116737465D01*
X88543066Y-116739815D01*
X88536184Y-116740609D01*
X88502291Y-116743574D01*
X88388579Y-116753523D01*
X88383265Y-116754947D01*
X88383264Y-116754947D01*
X88223523Y-116797749D01*
X88223521Y-116797750D01*
X88218213Y-116799172D01*
X88213233Y-116801494D01*
X88213231Y-116801495D01*
X88063342Y-116871390D01*
X88063339Y-116871392D01*
X88058361Y-116873713D01*
X87913882Y-116974878D01*
X87789164Y-117099596D01*
X87687999Y-117244075D01*
X87685678Y-117249053D01*
X87685676Y-117249056D01*
X87644062Y-117338297D01*
X87613458Y-117403927D01*
X87612036Y-117409235D01*
X87612035Y-117409237D01*
X87574153Y-117550615D01*
X87567809Y-117574293D01*
X87567330Y-117579773D01*
X87567328Y-117579785D01*
X87556480Y-117703768D01*
X87555214Y-117713691D01*
X87551215Y-117737460D01*
X87551062Y-117749999D01*
X87552851Y-117762491D01*
X87555013Y-117777587D01*
X87556286Y-117795450D01*
X87556286Y-119366000D01*
X87536284Y-119434121D01*
X87482628Y-119480614D01*
X87430286Y-119492000D01*
X74698286Y-119492000D01*
X74630165Y-119471998D01*
X74583672Y-119418342D01*
X74572286Y-119366000D01*
X74572286Y-116027425D01*
X74592288Y-115959304D01*
X74645944Y-115912811D01*
X74716218Y-115902707D01*
X74780798Y-115932201D01*
X74787369Y-115938318D01*
X75764882Y-116915830D01*
X75798906Y-116978141D01*
X75801786Y-117004924D01*
X75801786Y-117148134D01*
X75808541Y-117210316D01*
X75859671Y-117346705D01*
X75947025Y-117463261D01*
X76063581Y-117550615D01*
X76199970Y-117601745D01*
X76262152Y-117608500D01*
X78058420Y-117608500D01*
X78120602Y-117601745D01*
X78256991Y-117550615D01*
X78373547Y-117463261D01*
X78460901Y-117346705D01*
X78497508Y-117249056D01*
X78504884Y-117229382D01*
X78547526Y-117172618D01*
X78614088Y-117147918D01*
X78683436Y-117163126D01*
X78718103Y-117191114D01*
X78746536Y-117223938D01*
X78918412Y-117366632D01*
X79111286Y-117479338D01*
X79319978Y-117559030D01*
X79325046Y-117560061D01*
X79325049Y-117560062D01*
X79421932Y-117579773D01*
X79538883Y-117603567D01*
X79544058Y-117603757D01*
X79544060Y-117603757D01*
X79756959Y-117611564D01*
X79756963Y-117611564D01*
X79762123Y-117611753D01*
X79767243Y-117611097D01*
X79767245Y-117611097D01*
X79978574Y-117584025D01*
X79978575Y-117584025D01*
X79983702Y-117583368D01*
X79995685Y-117579773D01*
X80192715Y-117520661D01*
X80192720Y-117520659D01*
X80197670Y-117519174D01*
X80398280Y-117420896D01*
X80580146Y-117291173D01*
X80622411Y-117249056D01*
X80723902Y-117147918D01*
X80738382Y-117133489D01*
X80762737Y-117099596D01*
X80868739Y-116952077D01*
X80870062Y-116953028D01*
X80916931Y-116909857D01*
X80986866Y-116897625D01*
X81052312Y-116925144D01*
X81080161Y-116956994D01*
X81140273Y-117055088D01*
X81286536Y-117223938D01*
X81458412Y-117366632D01*
X81651286Y-117479338D01*
X81859978Y-117559030D01*
X81865046Y-117560061D01*
X81865049Y-117560062D01*
X81961932Y-117579773D01*
X82078883Y-117603567D01*
X82084058Y-117603757D01*
X82084060Y-117603757D01*
X82296959Y-117611564D01*
X82296963Y-117611564D01*
X82302123Y-117611753D01*
X82307243Y-117611097D01*
X82307245Y-117611097D01*
X82518574Y-117584025D01*
X82518575Y-117584025D01*
X82523702Y-117583368D01*
X82535685Y-117579773D01*
X82732715Y-117520661D01*
X82732720Y-117520659D01*
X82737670Y-117519174D01*
X82938280Y-117420896D01*
X83120146Y-117291173D01*
X83162411Y-117249056D01*
X83263902Y-117147918D01*
X83278382Y-117133489D01*
X83302737Y-117099596D01*
X83408739Y-116952077D01*
X83410062Y-116953028D01*
X83456931Y-116909857D01*
X83526866Y-116897625D01*
X83592312Y-116925144D01*
X83620161Y-116956994D01*
X83680273Y-117055088D01*
X83826536Y-117223938D01*
X83998412Y-117366632D01*
X84191286Y-117479338D01*
X84399978Y-117559030D01*
X84405046Y-117560061D01*
X84405049Y-117560062D01*
X84501932Y-117579773D01*
X84618883Y-117603567D01*
X84624058Y-117603757D01*
X84624060Y-117603757D01*
X84836959Y-117611564D01*
X84836963Y-117611564D01*
X84842123Y-117611753D01*
X84847243Y-117611097D01*
X84847245Y-117611097D01*
X85058574Y-117584025D01*
X85058575Y-117584025D01*
X85063702Y-117583368D01*
X85075685Y-117579773D01*
X85272715Y-117520661D01*
X85272720Y-117520659D01*
X85277670Y-117519174D01*
X85478280Y-117420896D01*
X85660146Y-117291173D01*
X85702411Y-117249056D01*
X85803902Y-117147918D01*
X85818382Y-117133489D01*
X85842737Y-117099596D01*
X85945721Y-116956277D01*
X85948739Y-116952077D01*
X85966655Y-116915828D01*
X86045422Y-116756453D01*
X86045423Y-116756451D01*
X86047716Y-116751811D01*
X86112656Y-116538069D01*
X86141815Y-116316590D01*
X86143442Y-116250000D01*
X86125138Y-116027361D01*
X86070717Y-115810702D01*
X85981640Y-115605840D01*
X85860300Y-115418277D01*
X85709956Y-115253051D01*
X85705905Y-115249852D01*
X85705901Y-115249848D01*
X85538700Y-115117800D01*
X85538696Y-115117798D01*
X85534645Y-115114598D01*
X85492855Y-115091529D01*
X85442884Y-115041097D01*
X85428112Y-114971654D01*
X85453228Y-114905248D01*
X85480580Y-114878641D01*
X85655614Y-114753792D01*
X85663486Y-114747139D01*
X85814338Y-114596812D01*
X85821016Y-114588965D01*
X85945289Y-114416020D01*
X85950599Y-114407183D01*
X86044956Y-114216267D01*
X86048755Y-114206672D01*
X86110663Y-114002910D01*
X86112841Y-113992837D01*
X86114272Y-113981962D01*
X86112870Y-113972966D01*
X92074543Y-113972966D01*
X92104851Y-114107446D01*
X92107931Y-114117275D01*
X92188056Y-114314603D01*
X92192699Y-114323794D01*
X92303980Y-114505388D01*
X92310063Y-114513699D01*
X92449499Y-114674667D01*
X92456866Y-114681883D01*
X92620720Y-114817916D01*
X92629167Y-114823831D01*
X92813042Y-114931279D01*
X92822328Y-114935729D01*
X93021287Y-115011703D01*
X93031185Y-115014579D01*
X93134536Y-115035606D01*
X93148585Y-115034410D01*
X93152286Y-115024065D01*
X93152286Y-113977115D01*
X93147811Y-113961876D01*
X93146421Y-113960671D01*
X93138738Y-113959000D01*
X92089511Y-113959000D01*
X92075980Y-113962973D01*
X92074543Y-113972966D01*
X86112870Y-113972966D01*
X86112061Y-113967778D01*
X86098903Y-113964000D01*
X84652286Y-113964000D01*
X84584165Y-113943998D01*
X84537672Y-113890342D01*
X84526286Y-113838000D01*
X84526286Y-113437885D01*
X85034286Y-113437885D01*
X85038761Y-113453124D01*
X85040151Y-113454329D01*
X85047834Y-113456000D01*
X86098630Y-113456000D01*
X86112161Y-113452027D01*
X86113466Y-113442947D01*
X86071500Y-113275875D01*
X86068180Y-113266124D01*
X85983258Y-113070814D01*
X85978391Y-113061739D01*
X85862712Y-112882926D01*
X85856422Y-112874757D01*
X85713092Y-112717240D01*
X85705559Y-112710215D01*
X85538425Y-112578222D01*
X85529838Y-112572517D01*
X85343403Y-112469599D01*
X85333991Y-112465369D01*
X85133245Y-112394280D01*
X85123274Y-112391646D01*
X85052123Y-112378972D01*
X85038826Y-112380432D01*
X85034286Y-112394989D01*
X85034286Y-113437885D01*
X84526286Y-113437885D01*
X84526286Y-112374987D01*
X84530733Y-112374987D01*
X84530726Y-112337275D01*
X84562534Y-112283656D01*
X86021785Y-110824405D01*
X86084097Y-110790379D01*
X86110880Y-110787500D01*
X91940137Y-110787500D01*
X92008258Y-110807502D01*
X92054751Y-110861158D01*
X92065424Y-110926889D01*
X92059876Y-110978808D01*
X92043537Y-111131695D01*
X92043834Y-111136848D01*
X92043834Y-111136851D01*
X92047280Y-111196616D01*
X92056396Y-111354715D01*
X92057533Y-111359761D01*
X92057534Y-111359767D01*
X92071972Y-111423830D01*
X92105508Y-111572639D01*
X92189552Y-111779616D01*
X92192251Y-111784020D01*
X92288083Y-111940404D01*
X92306273Y-111970088D01*
X92452536Y-112138938D01*
X92624412Y-112281632D01*
X92683914Y-112316402D01*
X92698241Y-112324774D01*
X92746965Y-112376412D01*
X92760036Y-112446195D01*
X92733305Y-112511967D01*
X92692848Y-112545327D01*
X92684743Y-112549546D01*
X92676024Y-112555036D01*
X92505719Y-112682905D01*
X92498012Y-112689748D01*
X92350876Y-112843717D01*
X92344390Y-112851727D01*
X92224384Y-113027649D01*
X92219286Y-113036623D01*
X92129624Y-113229783D01*
X92126061Y-113239470D01*
X92070675Y-113439183D01*
X92072198Y-113447607D01*
X92084578Y-113451000D01*
X93534286Y-113451000D01*
X93602407Y-113471002D01*
X93648900Y-113524658D01*
X93660286Y-113577000D01*
X93660286Y-115023517D01*
X93664350Y-115037359D01*
X93677764Y-115039393D01*
X93684470Y-115038534D01*
X93694548Y-115036392D01*
X93898541Y-114975191D01*
X93908128Y-114971433D01*
X94099381Y-114877739D01*
X94108231Y-114872464D01*
X94281614Y-114748792D01*
X94289486Y-114742139D01*
X94440338Y-114591812D01*
X94447016Y-114583965D01*
X94574308Y-114406819D01*
X94575565Y-114407722D01*
X94622659Y-114364362D01*
X94692597Y-114352145D01*
X94758037Y-114379678D01*
X94785865Y-114411511D01*
X94846273Y-114510088D01*
X94992536Y-114678938D01*
X95164412Y-114821632D01*
X95357286Y-114934338D01*
X95565978Y-115014030D01*
X95571046Y-115015061D01*
X95571049Y-115015062D01*
X95666148Y-115034410D01*
X95784883Y-115058567D01*
X95790058Y-115058757D01*
X95790060Y-115058757D01*
X96002959Y-115066564D01*
X96002963Y-115066564D01*
X96008123Y-115066753D01*
X96013243Y-115066097D01*
X96013245Y-115066097D01*
X96224574Y-115039025D01*
X96224575Y-115039025D01*
X96229702Y-115038368D01*
X96234652Y-115036883D01*
X96438715Y-114975661D01*
X96438720Y-114975659D01*
X96443670Y-114974174D01*
X96644280Y-114875896D01*
X96826146Y-114746173D01*
X96984382Y-114588489D01*
X97114739Y-114407077D01*
X97116062Y-114408028D01*
X97162931Y-114364857D01*
X97232866Y-114352625D01*
X97298312Y-114380144D01*
X97326161Y-114411994D01*
X97386273Y-114510088D01*
X97532536Y-114678938D01*
X97704412Y-114821632D01*
X97897286Y-114934338D01*
X98105978Y-115014030D01*
X98111046Y-115015061D01*
X98111049Y-115015062D01*
X98206148Y-115034410D01*
X98324883Y-115058567D01*
X98330058Y-115058757D01*
X98330060Y-115058757D01*
X98542959Y-115066564D01*
X98542963Y-115066564D01*
X98548123Y-115066753D01*
X98553243Y-115066097D01*
X98553245Y-115066097D01*
X98764574Y-115039025D01*
X98764575Y-115039025D01*
X98769702Y-115038368D01*
X98774652Y-115036883D01*
X98978715Y-114975661D01*
X98978720Y-114975659D01*
X98983670Y-114974174D01*
X99184280Y-114875896D01*
X99366146Y-114746173D01*
X99524382Y-114588489D01*
X99654739Y-114407077D01*
X99655926Y-114407930D01*
X99703246Y-114364362D01*
X99773183Y-114352145D01*
X99838624Y-114379678D01*
X99866452Y-114411511D01*
X99923980Y-114505388D01*
X99930063Y-114513699D01*
X100069499Y-114674667D01*
X100076866Y-114681883D01*
X100240720Y-114817916D01*
X100249167Y-114823831D01*
X100433042Y-114931279D01*
X100442328Y-114935729D01*
X100641287Y-115011703D01*
X100651185Y-115014579D01*
X100754536Y-115035606D01*
X100768585Y-115034410D01*
X100772286Y-115024065D01*
X100772286Y-115023517D01*
X101280286Y-115023517D01*
X101284350Y-115037359D01*
X101297764Y-115039393D01*
X101304470Y-115038534D01*
X101314548Y-115036392D01*
X101518541Y-114975191D01*
X101528128Y-114971433D01*
X101719381Y-114877739D01*
X101728231Y-114872464D01*
X101901614Y-114748792D01*
X101909486Y-114742139D01*
X102060338Y-114591812D01*
X102067016Y-114583965D01*
X102191289Y-114411020D01*
X102196599Y-114402183D01*
X102290956Y-114211267D01*
X102294755Y-114201672D01*
X102356663Y-113997910D01*
X102358841Y-113987837D01*
X102360272Y-113976962D01*
X102358061Y-113962778D01*
X102344903Y-113959000D01*
X101298401Y-113959000D01*
X101283162Y-113963475D01*
X101281957Y-113964865D01*
X101280286Y-113972548D01*
X101280286Y-115023517D01*
X100772286Y-115023517D01*
X100772286Y-113577000D01*
X100792288Y-113508879D01*
X100845944Y-113462386D01*
X100898286Y-113451000D01*
X102344630Y-113451000D01*
X102358161Y-113447027D01*
X102359466Y-113437947D01*
X102317500Y-113270875D01*
X102314180Y-113261124D01*
X102229258Y-113065814D01*
X102224391Y-113056739D01*
X102108712Y-112877926D01*
X102102422Y-112869757D01*
X101958579Y-112711677D01*
X101927527Y-112647831D01*
X101935921Y-112577333D01*
X101981098Y-112522564D01*
X102007542Y-112508895D01*
X102114583Y-112468767D01*
X102122991Y-112465615D01*
X102239547Y-112378261D01*
X102326901Y-112261705D01*
X102378031Y-112125316D01*
X102384786Y-112063134D01*
X102384786Y-110266866D01*
X102378031Y-110204684D01*
X102326901Y-110068295D01*
X102239547Y-109951739D01*
X102122991Y-109864385D01*
X102114582Y-109861233D01*
X102106711Y-109856923D01*
X102107622Y-109855259D01*
X102059796Y-109819337D01*
X102035093Y-109752776D01*
X102034786Y-109743991D01*
X102034786Y-108681850D01*
X102035523Y-108668242D01*
X102038946Y-108636737D01*
X102038946Y-108636733D01*
X102039611Y-108630612D01*
X102035235Y-108580589D01*
X102034905Y-108575752D01*
X102034786Y-108573314D01*
X102034786Y-108570231D01*
X102030604Y-108527580D01*
X102030482Y-108526265D01*
X102022911Y-108439723D01*
X102022911Y-108439721D01*
X102022374Y-108433587D01*
X102020885Y-108428463D01*
X102020366Y-108423167D01*
X101993497Y-108334172D01*
X101993156Y-108333022D01*
X101968914Y-108249582D01*
X101967195Y-108243664D01*
X101964742Y-108238932D01*
X101963202Y-108233831D01*
X101960314Y-108228400D01*
X101960311Y-108228392D01*
X101919523Y-108151680D01*
X101918911Y-108150514D01*
X101879015Y-108073548D01*
X101876178Y-108068075D01*
X101872856Y-108063914D01*
X101870352Y-108059204D01*
X101811598Y-107987165D01*
X101810769Y-107986139D01*
X101781743Y-107949778D01*
X101779548Y-107947028D01*
X101777057Y-107944537D01*
X101776407Y-107943810D01*
X101772692Y-107939461D01*
X101764928Y-107929941D01*
X101745351Y-107905938D01*
X101740609Y-107902015D01*
X101740607Y-107902013D01*
X101710013Y-107876703D01*
X101701233Y-107868713D01*
X96967141Y-103134621D01*
X96958039Y-103124478D01*
X96938183Y-103099782D01*
X96934318Y-103094975D01*
X96895864Y-103062708D01*
X96892217Y-103059528D01*
X96890405Y-103057885D01*
X96888211Y-103055691D01*
X96854937Y-103028358D01*
X96854139Y-103027696D01*
X96782812Y-102967846D01*
X96778142Y-102965278D01*
X96774025Y-102961897D01*
X96692200Y-102918023D01*
X96691041Y-102917394D01*
X96614905Y-102875538D01*
X96614897Y-102875535D01*
X96609499Y-102872567D01*
X96604417Y-102870955D01*
X96599723Y-102868438D01*
X96510755Y-102841238D01*
X96509727Y-102840918D01*
X96420980Y-102812765D01*
X96415684Y-102812171D01*
X96410588Y-102810613D01*
X96318029Y-102801210D01*
X96316893Y-102801089D01*
X96283278Y-102797319D01*
X96270556Y-102795892D01*
X96270552Y-102795892D01*
X96267059Y-102795500D01*
X96263532Y-102795500D01*
X96262547Y-102795445D01*
X96256867Y-102794998D01*
X96227461Y-102792011D01*
X96219949Y-102791248D01*
X96219947Y-102791248D01*
X96213824Y-102790626D01*
X96171545Y-102794623D01*
X96168177Y-102794941D01*
X96156319Y-102795500D01*
X82429129Y-102795500D01*
X82415522Y-102794763D01*
X82384024Y-102791341D01*
X82384019Y-102791341D01*
X82377898Y-102790676D01*
X82351648Y-102792973D01*
X82327898Y-102795050D01*
X82323072Y-102795379D01*
X82320600Y-102795500D01*
X82317517Y-102795500D01*
X82305548Y-102796674D01*
X82274780Y-102799690D01*
X82273467Y-102799812D01*
X82229202Y-102803685D01*
X82180873Y-102807913D01*
X82175754Y-102809400D01*
X82170453Y-102809920D01*
X82081452Y-102836791D01*
X82080319Y-102837126D01*
X81996872Y-102861370D01*
X81996868Y-102861372D01*
X81990950Y-102863091D01*
X81986218Y-102865544D01*
X81981117Y-102867084D01*
X81975674Y-102869978D01*
X81899026Y-102910731D01*
X81897860Y-102911343D01*
X81820833Y-102951271D01*
X81815360Y-102954108D01*
X81811197Y-102957431D01*
X81806490Y-102959934D01*
X81734368Y-103018755D01*
X81733512Y-103019446D01*
X81694313Y-103050738D01*
X81691809Y-103053242D01*
X81691091Y-103053884D01*
X81686758Y-103057585D01*
X81653224Y-103084935D01*
X81649297Y-103089682D01*
X81649295Y-103089684D01*
X81623999Y-103120262D01*
X81616009Y-103129042D01*
X74787381Y-109957671D01*
X74725069Y-109991697D01*
X74654254Y-109986632D01*
X74597418Y-109944085D01*
X74572607Y-109877565D01*
X74572286Y-109868576D01*
X74572286Y-101634000D01*
X74592288Y-101565879D01*
X74645944Y-101519386D01*
X74698286Y-101508000D01*
X75301675Y-101508000D01*
X75369796Y-101528002D01*
G37*
%TD.AperFunction*%
%TA.AperFunction,Conductor*%
G36*
X95808482Y-104832502D02*
G01*
X95829456Y-104849405D01*
X99980881Y-109000830D01*
X100014907Y-109063142D01*
X100017786Y-109089925D01*
X100017786Y-109743991D01*
X99997784Y-109812112D01*
X99944128Y-109858605D01*
X99938592Y-109860903D01*
X99937990Y-109861232D01*
X99929581Y-109864385D01*
X99813025Y-109951739D01*
X99725671Y-110068295D01*
X99722519Y-110076703D01*
X99681205Y-110186907D01*
X99638563Y-110243671D01*
X99572002Y-110268371D01*
X99502653Y-110253163D01*
X99470029Y-110227476D01*
X99419437Y-110171875D01*
X99419428Y-110171866D01*
X99415956Y-110168051D01*
X99411905Y-110164852D01*
X99411901Y-110164848D01*
X99244700Y-110032800D01*
X99244696Y-110032798D01*
X99240645Y-110029598D01*
X99236121Y-110027101D01*
X99236117Y-110027098D01*
X99184894Y-109998822D01*
X99134922Y-109948390D01*
X99119786Y-109888513D01*
X99119786Y-109714767D01*
X99120313Y-109703584D01*
X99121988Y-109696091D01*
X99119848Y-109628014D01*
X99119786Y-109624055D01*
X99119786Y-109596144D01*
X99119281Y-109592144D01*
X99118348Y-109580301D01*
X99117208Y-109544029D01*
X99116959Y-109536110D01*
X99111308Y-109516658D01*
X99107300Y-109497306D01*
X99105753Y-109485063D01*
X99104760Y-109477203D01*
X99101842Y-109469832D01*
X99088486Y-109436097D01*
X99084641Y-109424870D01*
X99084007Y-109422687D01*
X99072304Y-109382407D01*
X99068270Y-109375585D01*
X99068267Y-109375579D01*
X99061992Y-109364968D01*
X99053296Y-109347218D01*
X99048758Y-109335756D01*
X99048755Y-109335751D01*
X99045838Y-109328383D01*
X99019859Y-109292625D01*
X99013343Y-109282707D01*
X98994861Y-109251457D01*
X98990828Y-109244637D01*
X98976504Y-109230313D01*
X98963662Y-109215278D01*
X98951758Y-109198893D01*
X98917692Y-109170711D01*
X98908913Y-109162722D01*
X95443938Y-105697747D01*
X95436398Y-105689461D01*
X95432286Y-105682982D01*
X95382634Y-105636356D01*
X95379793Y-105633602D01*
X95360056Y-105613865D01*
X95356859Y-105611385D01*
X95347837Y-105603680D01*
X95334408Y-105591069D01*
X95315607Y-105573414D01*
X95308661Y-105569595D01*
X95308658Y-105569593D01*
X95297852Y-105563652D01*
X95281333Y-105552801D01*
X95280869Y-105552441D01*
X95265327Y-105540386D01*
X95258058Y-105537241D01*
X95258054Y-105537238D01*
X95224749Y-105522826D01*
X95214099Y-105517609D01*
X95175346Y-105496305D01*
X95155723Y-105491267D01*
X95137020Y-105484863D01*
X95125706Y-105479967D01*
X95125705Y-105479967D01*
X95118431Y-105476819D01*
X95110608Y-105475580D01*
X95110598Y-105475577D01*
X95074762Y-105469901D01*
X95063142Y-105467495D01*
X95027997Y-105458472D01*
X95027996Y-105458472D01*
X95020316Y-105456500D01*
X95000062Y-105456500D01*
X94980351Y-105454949D01*
X94968172Y-105453020D01*
X94960343Y-105451780D01*
X94931072Y-105454547D01*
X94916325Y-105455941D01*
X94904467Y-105456500D01*
X83843053Y-105456500D01*
X83831870Y-105455973D01*
X83824377Y-105454298D01*
X83816451Y-105454547D01*
X83816450Y-105454547D01*
X83756300Y-105456438D01*
X83752341Y-105456500D01*
X83724430Y-105456500D01*
X83720496Y-105456997D01*
X83720495Y-105456997D01*
X83720430Y-105457005D01*
X83708593Y-105457938D01*
X83676776Y-105458938D01*
X83672315Y-105459078D01*
X83664396Y-105459327D01*
X83646740Y-105464456D01*
X83644944Y-105464978D01*
X83625592Y-105468986D01*
X83618521Y-105469880D01*
X83605489Y-105471526D01*
X83598120Y-105474443D01*
X83598118Y-105474444D01*
X83564383Y-105487800D01*
X83553155Y-105491645D01*
X83510693Y-105503982D01*
X83503870Y-105508017D01*
X83503868Y-105508018D01*
X83493258Y-105514293D01*
X83475510Y-105522988D01*
X83456669Y-105530448D01*
X83450253Y-105535110D01*
X83450252Y-105535110D01*
X83420899Y-105556436D01*
X83410979Y-105562952D01*
X83379751Y-105581420D01*
X83379748Y-105581422D01*
X83372924Y-105585458D01*
X83358603Y-105599779D01*
X83343570Y-105612619D01*
X83327179Y-105624528D01*
X83318503Y-105635016D01*
X83298988Y-105658605D01*
X83290998Y-105667384D01*
X78038033Y-110920348D01*
X78029747Y-110927888D01*
X78023268Y-110932000D01*
X78017843Y-110937777D01*
X77976643Y-110981651D01*
X77973888Y-110984493D01*
X77954151Y-111004230D01*
X77951671Y-111007427D01*
X77943968Y-111016447D01*
X77913700Y-111048679D01*
X77909881Y-111055625D01*
X77909879Y-111055628D01*
X77903938Y-111066434D01*
X77893087Y-111082953D01*
X77880672Y-111098959D01*
X77877527Y-111106228D01*
X77877524Y-111106232D01*
X77863112Y-111139537D01*
X77857895Y-111150187D01*
X77836591Y-111188940D01*
X77834620Y-111196615D01*
X77834620Y-111196616D01*
X77831553Y-111208562D01*
X77825149Y-111227266D01*
X77817105Y-111245855D01*
X77815866Y-111253678D01*
X77815863Y-111253688D01*
X77810187Y-111289524D01*
X77807781Y-111301144D01*
X77796786Y-111343970D01*
X77796786Y-111364224D01*
X77795235Y-111383934D01*
X77792066Y-111403943D01*
X77792812Y-111411835D01*
X77796227Y-111447961D01*
X77796786Y-111459819D01*
X77796786Y-112316402D01*
X77776784Y-112384523D01*
X77723128Y-112431016D01*
X77652854Y-112441120D01*
X77628726Y-112435175D01*
X77513245Y-112394280D01*
X77503274Y-112391646D01*
X77432123Y-112378972D01*
X77418826Y-112380432D01*
X77414286Y-112394989D01*
X77414286Y-113838000D01*
X77394284Y-113906121D01*
X77340628Y-113952614D01*
X77288286Y-113964000D01*
X77032286Y-113964000D01*
X76964165Y-113943998D01*
X76917672Y-113890342D01*
X76906286Y-113838000D01*
X76906286Y-112393102D01*
X76902368Y-112379758D01*
X76888092Y-112377771D01*
X76849610Y-112383660D01*
X76839574Y-112386051D01*
X76637154Y-112452212D01*
X76627645Y-112456209D01*
X76438749Y-112554542D01*
X76430024Y-112560036D01*
X76338439Y-112628801D01*
X76271955Y-112653707D01*
X76202559Y-112638715D01*
X76152285Y-112588585D01*
X76136786Y-112528041D01*
X76136786Y-111512925D01*
X76156788Y-111444804D01*
X76173691Y-111423830D01*
X82748115Y-104849405D01*
X82810427Y-104815379D01*
X82837210Y-104812500D01*
X95740361Y-104812500D01*
X95808482Y-104832502D01*
G37*
%TD.AperFunction*%
M02*
