%TF.GenerationSoftware,KiCad,Pcbnew,(6.0.1)*%
%TF.CreationDate,2024-03-07T18:11:34-08:00*%
%TF.ProjectId,Gamecube_SD2SP2PRO,47616d65-6375-4626-955f-534432535032,rev?*%
%TF.SameCoordinates,Original*%
%TF.FileFunction,Legend,Top*%
%TF.FilePolarity,Positive*%
%FSLAX46Y46*%
G04 Gerber Fmt 4.6, Leading zero omitted, Abs format (unit mm)*
G04 Created by KiCad (PCBNEW (6.0.1)) date 2024-03-07 18:11:34*
%MOMM*%
%LPD*%
G01*
G04 APERTURE LIST*
G04 Aperture macros list*
%AMRoundRect*
0 Rectangle with rounded corners*
0 $1 Rounding radius*
0 $2 $3 $4 $5 $6 $7 $8 $9 X,Y pos of 4 corners*
0 Add a 4 corners polygon primitive as box body*
4,1,4,$2,$3,$4,$5,$6,$7,$8,$9,$2,$3,0*
0 Add four circle primitives for the rounded corners*
1,1,$1+$1,$2,$3*
1,1,$1+$1,$4,$5*
1,1,$1+$1,$6,$7*
1,1,$1+$1,$8,$9*
0 Add four rect primitives between the rounded corners*
20,1,$1+$1,$2,$3,$4,$5,0*
20,1,$1+$1,$4,$5,$6,$7,0*
20,1,$1+$1,$6,$7,$8,$9,0*
20,1,$1+$1,$8,$9,$2,$3,0*%
G04 Aperture macros list end*
%ADD10C,0.300000*%
%ADD11C,0.150000*%
%ADD12C,0.120000*%
%ADD13RoundRect,0.200000X0.850000X-0.850000X0.850000X0.850000X-0.850000X0.850000X-0.850000X-0.850000X0*%
%ADD14O,2.100000X2.100000*%
%ADD15RoundRect,0.200000X-0.850000X0.850000X-0.850000X-0.850000X0.850000X-0.850000X0.850000X0.850000X0*%
G04 APERTURE END LIST*
D10*
X98874143Y-103045071D02*
X99731286Y-103045071D01*
X99302714Y-104545071D02*
X99302714Y-103045071D01*
X100231286Y-104545071D02*
X100231286Y-103045071D01*
X100231286Y-103759357D02*
X101088428Y-103759357D01*
X101088428Y-104545071D02*
X101088428Y-103045071D01*
X101802714Y-104545071D02*
X101802714Y-103045071D01*
X102445571Y-104473642D02*
X102659857Y-104545071D01*
X103017000Y-104545071D01*
X103159857Y-104473642D01*
X103231286Y-104402214D01*
X103302714Y-104259357D01*
X103302714Y-104116500D01*
X103231286Y-103973642D01*
X103159857Y-103902214D01*
X103017000Y-103830785D01*
X102731286Y-103759357D01*
X102588428Y-103687928D01*
X102517000Y-103616500D01*
X102445571Y-103473642D01*
X102445571Y-103330785D01*
X102517000Y-103187928D01*
X102588428Y-103116500D01*
X102731286Y-103045071D01*
X103088428Y-103045071D01*
X103302714Y-103116500D01*
X105017000Y-104473642D02*
X105231286Y-104545071D01*
X105588428Y-104545071D01*
X105731286Y-104473642D01*
X105802714Y-104402214D01*
X105874143Y-104259357D01*
X105874143Y-104116500D01*
X105802714Y-103973642D01*
X105731286Y-103902214D01*
X105588428Y-103830785D01*
X105302714Y-103759357D01*
X105159857Y-103687928D01*
X105088428Y-103616500D01*
X105017000Y-103473642D01*
X105017000Y-103330785D01*
X105088428Y-103187928D01*
X105159857Y-103116500D01*
X105302714Y-103045071D01*
X105659857Y-103045071D01*
X105874143Y-103116500D01*
X106517000Y-104545071D02*
X106517000Y-103045071D01*
X107231286Y-104545071D02*
X107231286Y-103045071D01*
X107588428Y-103045071D01*
X107802714Y-103116500D01*
X107945571Y-103259357D01*
X108017000Y-103402214D01*
X108088428Y-103687928D01*
X108088428Y-103902214D01*
X108017000Y-104187928D01*
X107945571Y-104330785D01*
X107802714Y-104473642D01*
X107588428Y-104545071D01*
X107231286Y-104545071D01*
X108731286Y-103759357D02*
X109231286Y-103759357D01*
X109445571Y-104545071D02*
X108731286Y-104545071D01*
X108731286Y-103045071D01*
X109445571Y-103045071D01*
X93302714Y-106174357D02*
X92802714Y-106174357D01*
X92802714Y-106960071D02*
X92802714Y-105460071D01*
X93517000Y-105460071D01*
X94017000Y-106531500D02*
X94731286Y-106531500D01*
X93874143Y-106960071D02*
X94374143Y-105460071D01*
X94874143Y-106960071D01*
X96231286Y-106817214D02*
X96159857Y-106888642D01*
X95945571Y-106960071D01*
X95802714Y-106960071D01*
X95588428Y-106888642D01*
X95445571Y-106745785D01*
X95374143Y-106602928D01*
X95302714Y-106317214D01*
X95302714Y-106102928D01*
X95374143Y-105817214D01*
X95445571Y-105674357D01*
X95588428Y-105531500D01*
X95802714Y-105460071D01*
X95945571Y-105460071D01*
X96159857Y-105531500D01*
X96231286Y-105602928D01*
X96874143Y-106174357D02*
X97374143Y-106174357D01*
X97588428Y-106960071D02*
X96874143Y-106960071D01*
X96874143Y-105460071D01*
X97588428Y-105460071D01*
X98159857Y-106888642D02*
X98374143Y-106960071D01*
X98731286Y-106960071D01*
X98874143Y-106888642D01*
X98945571Y-106817214D01*
X99017000Y-106674357D01*
X99017000Y-106531500D01*
X98945571Y-106388642D01*
X98874143Y-106317214D01*
X98731286Y-106245785D01*
X98445571Y-106174357D01*
X98302714Y-106102928D01*
X98231286Y-106031500D01*
X98159857Y-105888642D01*
X98159857Y-105745785D01*
X98231286Y-105602928D01*
X98302714Y-105531500D01*
X98445571Y-105460071D01*
X98802714Y-105460071D01*
X99017000Y-105531500D01*
X101088428Y-105460071D02*
X101374143Y-105460071D01*
X101517000Y-105531500D01*
X101659857Y-105674357D01*
X101731286Y-105960071D01*
X101731286Y-106460071D01*
X101659857Y-106745785D01*
X101517000Y-106888642D01*
X101374143Y-106960071D01*
X101088428Y-106960071D01*
X100945571Y-106888642D01*
X100802714Y-106745785D01*
X100731286Y-106460071D01*
X100731286Y-105960071D01*
X100802714Y-105674357D01*
X100945571Y-105531500D01*
X101088428Y-105460071D01*
X102374143Y-105460071D02*
X102374143Y-106674357D01*
X102445571Y-106817214D01*
X102517000Y-106888642D01*
X102659857Y-106960071D01*
X102945571Y-106960071D01*
X103088428Y-106888642D01*
X103159857Y-106817214D01*
X103231286Y-106674357D01*
X103231286Y-105460071D01*
X103731286Y-105460071D02*
X104588428Y-105460071D01*
X104159857Y-106960071D02*
X104159857Y-105460071D01*
X105017000Y-106888642D02*
X105231286Y-106960071D01*
X105588428Y-106960071D01*
X105731286Y-106888642D01*
X105802714Y-106817214D01*
X105874143Y-106674357D01*
X105874143Y-106531500D01*
X105802714Y-106388642D01*
X105731286Y-106317214D01*
X105588428Y-106245785D01*
X105302714Y-106174357D01*
X105159857Y-106102928D01*
X105088428Y-106031500D01*
X105017000Y-105888642D01*
X105017000Y-105745785D01*
X105088428Y-105602928D01*
X105159857Y-105531500D01*
X105302714Y-105460071D01*
X105659857Y-105460071D01*
X105874143Y-105531500D01*
X106517000Y-106960071D02*
X106517000Y-105460071D01*
X107231286Y-106960071D02*
X107231286Y-105460071D01*
X107588428Y-105460071D01*
X107802714Y-105531500D01*
X107945571Y-105674357D01*
X108017000Y-105817214D01*
X108088428Y-106102928D01*
X108088428Y-106317214D01*
X108017000Y-106602928D01*
X107945571Y-106745785D01*
X107802714Y-106888642D01*
X107588428Y-106960071D01*
X107231286Y-106960071D01*
X108731286Y-106174357D02*
X109231286Y-106174357D01*
X109445571Y-106960071D02*
X108731286Y-106960071D01*
X108731286Y-105460071D01*
X109445571Y-105460071D01*
D11*
X102808666Y-112768333D02*
X103522952Y-112768333D01*
X103665809Y-112815952D01*
X103761047Y-112911190D01*
X103808666Y-113054047D01*
X103808666Y-113149285D01*
X102903905Y-112339761D02*
X102856286Y-112292142D01*
X102808666Y-112196904D01*
X102808666Y-111958809D01*
X102856286Y-111863571D01*
X102903905Y-111815952D01*
X102999143Y-111768333D01*
X103094381Y-111768333D01*
X103237238Y-111815952D01*
X103808666Y-112387380D01*
X103808666Y-111768333D01*
D12*
X75890286Y-117520000D02*
X75890286Y-116250000D01*
X76780286Y-103610000D02*
X77540286Y-103610000D01*
X80080286Y-103610000D02*
X80080286Y-109610000D01*
X84400286Y-115207071D02*
X84400286Y-114752929D01*
X83510286Y-112270000D02*
X83510286Y-109610000D01*
X79320286Y-103610000D02*
X80080286Y-103610000D01*
X77440286Y-109610000D02*
X77440286Y-103610000D01*
X77160286Y-117520000D02*
X75890286Y-117520000D01*
X81860286Y-103610000D02*
X82620286Y-103610000D01*
X79320286Y-112667071D02*
X79320286Y-112270000D01*
X80970286Y-112270000D02*
X80970286Y-109610000D01*
X77200286Y-109610000D02*
X77200286Y-103610000D01*
X76780286Y-109610000D02*
X76780286Y-103610000D01*
X80080286Y-115207071D02*
X80080286Y-114752929D01*
X85160286Y-103610000D02*
X85160286Y-109610000D01*
X81860286Y-112667071D02*
X81860286Y-112270000D01*
X76960286Y-109610000D02*
X76960286Y-103610000D01*
X84400286Y-112667071D02*
X84400286Y-112270000D01*
X86110286Y-112270000D02*
X86110286Y-109610000D01*
X81860286Y-109610000D02*
X81860286Y-103610000D01*
X76780286Y-112667071D02*
X76780286Y-112270000D01*
X86110286Y-109610000D02*
X75830286Y-109610000D01*
X84400286Y-109610000D02*
X84400286Y-103610000D01*
X77320286Y-109610000D02*
X77320286Y-103610000D01*
X85160286Y-115207071D02*
X85160286Y-114752929D01*
X77540286Y-112667071D02*
X77540286Y-112270000D01*
X75830286Y-112270000D02*
X86110286Y-112270000D01*
X77540286Y-115140000D02*
X77540286Y-114752929D01*
X77080286Y-109610000D02*
X77080286Y-103610000D01*
X82620286Y-103610000D02*
X82620286Y-109610000D01*
X76780286Y-115140000D02*
X76780286Y-114752929D01*
X82620286Y-112667071D02*
X82620286Y-112270000D01*
X75830286Y-109610000D02*
X75830286Y-112270000D01*
X79320286Y-115207071D02*
X79320286Y-114752929D01*
X82620286Y-115207071D02*
X82620286Y-114752929D01*
X84400286Y-103610000D02*
X85160286Y-103610000D01*
X80080286Y-112667071D02*
X80080286Y-112270000D01*
X76840286Y-109610000D02*
X76840286Y-103610000D01*
X78430286Y-112270000D02*
X78430286Y-109610000D01*
X85160286Y-112667071D02*
X85160286Y-112270000D01*
X77540286Y-103610000D02*
X77540286Y-109610000D01*
X81860286Y-115207071D02*
X81860286Y-114752929D01*
X79320286Y-109610000D02*
X79320286Y-103610000D01*
X92076286Y-109835000D02*
X92076286Y-115035000D01*
X102356286Y-112435000D02*
X102356286Y-115035000D01*
X99756286Y-112435000D02*
X102356286Y-112435000D01*
X102356286Y-109835000D02*
X102356286Y-111165000D01*
X101026286Y-109835000D02*
X102356286Y-109835000D01*
X99756286Y-109835000D02*
X92076286Y-109835000D01*
X102356286Y-115035000D02*
X92076286Y-115035000D01*
X99756286Y-109835000D02*
X99756286Y-112435000D01*
%LPC*%
D13*
X77160286Y-116250000D03*
D14*
X77160286Y-113710000D03*
X79700286Y-116250000D03*
X79700286Y-113710000D03*
X82240286Y-116250000D03*
X82240286Y-113710000D03*
X84780286Y-116250000D03*
X84780286Y-113710000D03*
D15*
X101026286Y-111165000D03*
D14*
X101026286Y-113705000D03*
X98486286Y-111165000D03*
X98486286Y-113705000D03*
X95946286Y-111165000D03*
X95946286Y-113705000D03*
X93406286Y-111165000D03*
X93406286Y-113705000D03*
M02*
