%TF.GenerationSoftware,KiCad,Pcbnew,(6.0.1)*%
%TF.CreationDate,2024-03-07T18:11:34-08:00*%
%TF.ProjectId,Gamecube_SD2SP2PRO,47616d65-6375-4626-955f-534432535032,rev?*%
%TF.SameCoordinates,Original*%
%TF.FileFunction,Legend,Bot*%
%TF.FilePolarity,Positive*%
%FSLAX46Y46*%
G04 Gerber Fmt 4.6, Leading zero omitted, Abs format (unit mm)*
G04 Created by KiCad (PCBNEW (6.0.1)) date 2024-03-07 18:11:34*
%MOMM*%
%LPD*%
G01*
G04 APERTURE LIST*
G04 Aperture macros list*
%AMRoundRect*
0 Rectangle with rounded corners*
0 $1 Rounding radius*
0 $2 $3 $4 $5 $6 $7 $8 $9 X,Y pos of 4 corners*
0 Add a 4 corners polygon primitive as box body*
4,1,4,$2,$3,$4,$5,$6,$7,$8,$9,$2,$3,0*
0 Add four circle primitives for the rounded corners*
1,1,$1+$1,$2,$3*
1,1,$1+$1,$4,$5*
1,1,$1+$1,$6,$7*
1,1,$1+$1,$8,$9*
0 Add four rect primitives between the rounded corners*
20,1,$1+$1,$2,$3,$4,$5,0*
20,1,$1+$1,$4,$5,$6,$7,0*
20,1,$1+$1,$6,$7,$8,$9,0*
20,1,$1+$1,$8,$9,$2,$3,0*%
G04 Aperture macros list end*
%ADD10C,0.300000*%
%ADD11C,0.100000*%
%ADD12RoundRect,0.200000X0.850000X-0.850000X0.850000X0.850000X-0.850000X0.850000X-0.850000X-0.850000X0*%
%ADD13O,2.100000X2.100000*%
%ADD14RoundRect,0.200000X-0.850000X0.850000X-0.850000X-0.850000X0.850000X-0.850000X0.850000X0.850000X0*%
G04 APERTURE END LIST*
D10*
X109588428Y-102982571D02*
X108731286Y-102982571D01*
X109159857Y-104482571D02*
X109159857Y-102982571D01*
X108231286Y-104482571D02*
X108231286Y-102982571D01*
X108231286Y-103696857D02*
X107374143Y-103696857D01*
X107374143Y-104482571D02*
X107374143Y-102982571D01*
X106659857Y-104482571D02*
X106659857Y-102982571D01*
X106017000Y-104411142D02*
X105802714Y-104482571D01*
X105445571Y-104482571D01*
X105302714Y-104411142D01*
X105231286Y-104339714D01*
X105159857Y-104196857D01*
X105159857Y-104054000D01*
X105231286Y-103911142D01*
X105302714Y-103839714D01*
X105445571Y-103768285D01*
X105731286Y-103696857D01*
X105874143Y-103625428D01*
X105945571Y-103554000D01*
X106017000Y-103411142D01*
X106017000Y-103268285D01*
X105945571Y-103125428D01*
X105874143Y-103054000D01*
X105731286Y-102982571D01*
X105374143Y-102982571D01*
X105159857Y-103054000D01*
X103445571Y-104411142D02*
X103231286Y-104482571D01*
X102874143Y-104482571D01*
X102731286Y-104411142D01*
X102659857Y-104339714D01*
X102588428Y-104196857D01*
X102588428Y-104054000D01*
X102659857Y-103911142D01*
X102731286Y-103839714D01*
X102874143Y-103768285D01*
X103159857Y-103696857D01*
X103302714Y-103625428D01*
X103374143Y-103554000D01*
X103445571Y-103411142D01*
X103445571Y-103268285D01*
X103374143Y-103125428D01*
X103302714Y-103054000D01*
X103159857Y-102982571D01*
X102802714Y-102982571D01*
X102588428Y-103054000D01*
X101945571Y-104482571D02*
X101945571Y-102982571D01*
X101231286Y-104482571D02*
X101231286Y-102982571D01*
X100874143Y-102982571D01*
X100659857Y-103054000D01*
X100517000Y-103196857D01*
X100445571Y-103339714D01*
X100374143Y-103625428D01*
X100374143Y-103839714D01*
X100445571Y-104125428D01*
X100517000Y-104268285D01*
X100659857Y-104411142D01*
X100874143Y-104482571D01*
X101231286Y-104482571D01*
X99731286Y-103696857D02*
X99231286Y-103696857D01*
X99017000Y-104482571D02*
X99731286Y-104482571D01*
X99731286Y-102982571D01*
X99017000Y-102982571D01*
X96731286Y-103696857D02*
X97231286Y-103696857D01*
X97231286Y-104482571D02*
X97231286Y-102982571D01*
X96517000Y-102982571D01*
X96017000Y-104054000D02*
X95302714Y-104054000D01*
X96159857Y-104482571D02*
X95659857Y-102982571D01*
X95159857Y-104482571D01*
X93802714Y-104339714D02*
X93874143Y-104411142D01*
X94088428Y-104482571D01*
X94231286Y-104482571D01*
X94445571Y-104411142D01*
X94588428Y-104268285D01*
X94659857Y-104125428D01*
X94731286Y-103839714D01*
X94731286Y-103625428D01*
X94659857Y-103339714D01*
X94588428Y-103196857D01*
X94445571Y-103054000D01*
X94231286Y-102982571D01*
X94088428Y-102982571D01*
X93874143Y-103054000D01*
X93802714Y-103125428D01*
X93159857Y-103696857D02*
X92659857Y-103696857D01*
X92445571Y-104482571D02*
X93159857Y-104482571D01*
X93159857Y-102982571D01*
X92445571Y-102982571D01*
X91874143Y-104411142D02*
X91659857Y-104482571D01*
X91302714Y-104482571D01*
X91159857Y-104411142D01*
X91088428Y-104339714D01*
X91017000Y-104196857D01*
X91017000Y-104054000D01*
X91088428Y-103911142D01*
X91159857Y-103839714D01*
X91302714Y-103768285D01*
X91588428Y-103696857D01*
X91731286Y-103625428D01*
X91802714Y-103554000D01*
X91874143Y-103411142D01*
X91874143Y-103268285D01*
X91802714Y-103125428D01*
X91731286Y-103054000D01*
X91588428Y-102982571D01*
X91231286Y-102982571D01*
X91017000Y-103054000D01*
X89231286Y-104482571D02*
X89231286Y-102982571D01*
X88517000Y-104482571D02*
X88517000Y-102982571D01*
X87659857Y-104482571D01*
X87659857Y-102982571D01*
X87017000Y-104411142D02*
X86802714Y-104482571D01*
X86445571Y-104482571D01*
X86302714Y-104411142D01*
X86231286Y-104339714D01*
X86159857Y-104196857D01*
X86159857Y-104054000D01*
X86231286Y-103911142D01*
X86302714Y-103839714D01*
X86445571Y-103768285D01*
X86731286Y-103696857D01*
X86874143Y-103625428D01*
X86945571Y-103554000D01*
X87017000Y-103411142D01*
X87017000Y-103268285D01*
X86945571Y-103125428D01*
X86874143Y-103054000D01*
X86731286Y-102982571D01*
X86374143Y-102982571D01*
X86159857Y-103054000D01*
X85517000Y-104482571D02*
X85517000Y-102982571D01*
X84802714Y-104482571D02*
X84802714Y-102982571D01*
X84445571Y-102982571D01*
X84231286Y-103054000D01*
X84088428Y-103196857D01*
X84017000Y-103339714D01*
X83945571Y-103625428D01*
X83945571Y-103839714D01*
X84017000Y-104125428D01*
X84088428Y-104268285D01*
X84231286Y-104411142D01*
X84445571Y-104482571D01*
X84802714Y-104482571D01*
X83302714Y-103696857D02*
X82802714Y-103696857D01*
X82588428Y-104482571D02*
X83302714Y-104482571D01*
X83302714Y-102982571D01*
X82588428Y-102982571D01*
D11*
X87759524Y-107535809D02*
X87645238Y-107573904D01*
X87454762Y-107573904D01*
X87378571Y-107535809D01*
X87340476Y-107497714D01*
X87302381Y-107421523D01*
X87302381Y-107345333D01*
X87340476Y-107269142D01*
X87378571Y-107231047D01*
X87454762Y-107192952D01*
X87607143Y-107154857D01*
X87683333Y-107116761D01*
X87721428Y-107078666D01*
X87759524Y-107002476D01*
X87759524Y-106926285D01*
X87721428Y-106850095D01*
X87683333Y-106812000D01*
X87607143Y-106773904D01*
X87416666Y-106773904D01*
X87302381Y-106812000D01*
X86959524Y-107573904D02*
X86959524Y-106773904D01*
X86769047Y-106773904D01*
X86654762Y-106812000D01*
X86578571Y-106888190D01*
X86540476Y-106964380D01*
X86502381Y-107116761D01*
X86502381Y-107231047D01*
X86540476Y-107383428D01*
X86578571Y-107459619D01*
X86654762Y-107535809D01*
X86769047Y-107573904D01*
X86959524Y-107573904D01*
X86197619Y-106850095D02*
X86159524Y-106812000D01*
X86083333Y-106773904D01*
X85892857Y-106773904D01*
X85816666Y-106812000D01*
X85778571Y-106850095D01*
X85740476Y-106926285D01*
X85740476Y-107002476D01*
X85778571Y-107116761D01*
X86235714Y-107573904D01*
X85740476Y-107573904D01*
X85435714Y-107535809D02*
X85321428Y-107573904D01*
X85130952Y-107573904D01*
X85054762Y-107535809D01*
X85016666Y-107497714D01*
X84978571Y-107421523D01*
X84978571Y-107345333D01*
X85016666Y-107269142D01*
X85054762Y-107231047D01*
X85130952Y-107192952D01*
X85283333Y-107154857D01*
X85359524Y-107116761D01*
X85397619Y-107078666D01*
X85435714Y-107002476D01*
X85435714Y-106926285D01*
X85397619Y-106850095D01*
X85359524Y-106812000D01*
X85283333Y-106773904D01*
X85092857Y-106773904D01*
X84978571Y-106812000D01*
X84635714Y-107573904D02*
X84635714Y-106773904D01*
X84330952Y-106773904D01*
X84254762Y-106812000D01*
X84216666Y-106850095D01*
X84178571Y-106926285D01*
X84178571Y-107040571D01*
X84216666Y-107116761D01*
X84254762Y-107154857D01*
X84330952Y-107192952D01*
X84635714Y-107192952D01*
X83873809Y-106850095D02*
X83835714Y-106812000D01*
X83759524Y-106773904D01*
X83569047Y-106773904D01*
X83492857Y-106812000D01*
X83454762Y-106850095D01*
X83416666Y-106926285D01*
X83416666Y-107002476D01*
X83454762Y-107116761D01*
X83911905Y-107573904D01*
X83416666Y-107573904D01*
X82464286Y-107573904D02*
X82464286Y-106773904D01*
X82159524Y-106773904D01*
X82083333Y-106812000D01*
X82045238Y-106850095D01*
X82007143Y-106926285D01*
X82007143Y-107040571D01*
X82045238Y-107116761D01*
X82083333Y-107154857D01*
X82159524Y-107192952D01*
X82464286Y-107192952D01*
X81207143Y-107573904D02*
X81473809Y-107192952D01*
X81664286Y-107573904D02*
X81664286Y-106773904D01*
X81359524Y-106773904D01*
X81283333Y-106812000D01*
X81245238Y-106850095D01*
X81207143Y-106926285D01*
X81207143Y-107040571D01*
X81245238Y-107116761D01*
X81283333Y-107154857D01*
X81359524Y-107192952D01*
X81664286Y-107192952D01*
X80711905Y-106773904D02*
X80559524Y-106773904D01*
X80483333Y-106812000D01*
X80407143Y-106888190D01*
X80369047Y-107040571D01*
X80369047Y-107307238D01*
X80407143Y-107459619D01*
X80483333Y-107535809D01*
X80559524Y-107573904D01*
X80711905Y-107573904D01*
X80788095Y-107535809D01*
X80864286Y-107459619D01*
X80902381Y-107307238D01*
X80902381Y-107040571D01*
X80864286Y-106888190D01*
X80788095Y-106812000D01*
X80711905Y-106773904D01*
X91511905Y-108061904D02*
X91359524Y-108061904D01*
X91283333Y-108100000D01*
X91207143Y-108176190D01*
X91169047Y-108328571D01*
X91169047Y-108595238D01*
X91207143Y-108747619D01*
X91283333Y-108823809D01*
X91359524Y-108861904D01*
X91511905Y-108861904D01*
X91588095Y-108823809D01*
X91664286Y-108747619D01*
X91702381Y-108595238D01*
X91702381Y-108328571D01*
X91664286Y-108176190D01*
X91588095Y-108100000D01*
X91511905Y-108061904D01*
X90369047Y-108861904D02*
X90635714Y-108480952D01*
X90826190Y-108861904D02*
X90826190Y-108061904D01*
X90521428Y-108061904D01*
X90445238Y-108100000D01*
X90407143Y-108138095D01*
X90369047Y-108214285D01*
X90369047Y-108328571D01*
X90407143Y-108404761D01*
X90445238Y-108442857D01*
X90521428Y-108480952D01*
X90826190Y-108480952D01*
X90026190Y-108861904D02*
X90026190Y-108061904D01*
X89226190Y-108100000D02*
X89302381Y-108061904D01*
X89416666Y-108061904D01*
X89530952Y-108100000D01*
X89607143Y-108176190D01*
X89645238Y-108252380D01*
X89683333Y-108404761D01*
X89683333Y-108519047D01*
X89645238Y-108671428D01*
X89607143Y-108747619D01*
X89530952Y-108823809D01*
X89416666Y-108861904D01*
X89340476Y-108861904D01*
X89226190Y-108823809D01*
X89188095Y-108785714D01*
X89188095Y-108519047D01*
X89340476Y-108519047D01*
X88845238Y-108861904D02*
X88845238Y-108061904D01*
X88464286Y-108861904D02*
X88464286Y-108061904D01*
X88007143Y-108861904D01*
X88007143Y-108061904D01*
X87664286Y-108633333D02*
X87283333Y-108633333D01*
X87740476Y-108861904D02*
X87473809Y-108061904D01*
X87207143Y-108861904D01*
X86559524Y-108861904D02*
X86940476Y-108861904D01*
X86940476Y-108061904D01*
X86292857Y-108785714D02*
X86254762Y-108823809D01*
X86292857Y-108861904D01*
X86330952Y-108823809D01*
X86292857Y-108785714D01*
X86292857Y-108861904D01*
X86292857Y-108366666D02*
X86254762Y-108404761D01*
X86292857Y-108442857D01*
X86330952Y-108404761D01*
X86292857Y-108366666D01*
X86292857Y-108442857D01*
X84807143Y-108480952D02*
X84845238Y-108442857D01*
X84921428Y-108404761D01*
X84997619Y-108404761D01*
X85073809Y-108442857D01*
X85111905Y-108480952D01*
X85150000Y-108557142D01*
X85150000Y-108633333D01*
X85111905Y-108709523D01*
X85073809Y-108747619D01*
X84997619Y-108785714D01*
X84921428Y-108785714D01*
X84845238Y-108747619D01*
X84807143Y-108709523D01*
X84807143Y-108404761D02*
X84807143Y-108709523D01*
X84769047Y-108747619D01*
X84730952Y-108747619D01*
X84654762Y-108709523D01*
X84616666Y-108633333D01*
X84616666Y-108442857D01*
X84692857Y-108328571D01*
X84807143Y-108252380D01*
X84959524Y-108214285D01*
X85111905Y-108252380D01*
X85226190Y-108328571D01*
X85302381Y-108442857D01*
X85340476Y-108595238D01*
X85302381Y-108747619D01*
X85226190Y-108861904D01*
X85111905Y-108938095D01*
X84959524Y-108976190D01*
X84807143Y-108938095D01*
X84692857Y-108861904D01*
X83930952Y-108823809D02*
X84007143Y-108861904D01*
X84159524Y-108861904D01*
X84235714Y-108823809D01*
X84273809Y-108785714D01*
X84311905Y-108709523D01*
X84311905Y-108480952D01*
X84273809Y-108404761D01*
X84235714Y-108366666D01*
X84159524Y-108328571D01*
X84007143Y-108328571D01*
X83930952Y-108366666D01*
X83588095Y-108861904D02*
X83588095Y-108328571D01*
X83588095Y-108061904D02*
X83626190Y-108100000D01*
X83588095Y-108138095D01*
X83550000Y-108100000D01*
X83588095Y-108061904D01*
X83588095Y-108138095D01*
X83321428Y-108328571D02*
X83016666Y-108328571D01*
X83207143Y-108061904D02*
X83207143Y-108747619D01*
X83169047Y-108823809D01*
X83092857Y-108861904D01*
X83016666Y-108861904D01*
X82750000Y-108861904D02*
X82750000Y-108328571D01*
X82750000Y-108480952D02*
X82711905Y-108404761D01*
X82673809Y-108366666D01*
X82597619Y-108328571D01*
X82521428Y-108328571D01*
X81911905Y-108328571D02*
X81911905Y-108861904D01*
X82254762Y-108328571D02*
X82254762Y-108747619D01*
X82216666Y-108823809D01*
X82140476Y-108861904D01*
X82026190Y-108861904D01*
X81950000Y-108823809D01*
X81911905Y-108785714D01*
X81569047Y-108823809D02*
X81492857Y-108861904D01*
X81340476Y-108861904D01*
X81264286Y-108823809D01*
X81226190Y-108747619D01*
X81226190Y-108709523D01*
X81264286Y-108633333D01*
X81340476Y-108595238D01*
X81454762Y-108595238D01*
X81530952Y-108557142D01*
X81569047Y-108480952D01*
X81569047Y-108442857D01*
X81530952Y-108366666D01*
X81454762Y-108328571D01*
X81340476Y-108328571D01*
X81264286Y-108366666D01*
X80959524Y-108061904D02*
X80464286Y-108061904D01*
X80730952Y-108366666D01*
X80616666Y-108366666D01*
X80540476Y-108404761D01*
X80502381Y-108442857D01*
X80464286Y-108519047D01*
X80464286Y-108709523D01*
X80502381Y-108785714D01*
X80540476Y-108823809D01*
X80616666Y-108861904D01*
X80845238Y-108861904D01*
X80921428Y-108823809D01*
X80959524Y-108785714D01*
X79969047Y-108061904D02*
X79892857Y-108061904D01*
X79816666Y-108100000D01*
X79778571Y-108138095D01*
X79740476Y-108214285D01*
X79702381Y-108366666D01*
X79702381Y-108557142D01*
X79740476Y-108709523D01*
X79778571Y-108785714D01*
X79816666Y-108823809D01*
X79892857Y-108861904D01*
X79969047Y-108861904D01*
X80045238Y-108823809D01*
X80083333Y-108785714D01*
X80121428Y-108709523D01*
X80159524Y-108557142D01*
X80159524Y-108366666D01*
X80121428Y-108214285D01*
X80083333Y-108138095D01*
X80045238Y-108100000D01*
X79969047Y-108061904D01*
X79207143Y-108061904D02*
X79130952Y-108061904D01*
X79054762Y-108100000D01*
X79016666Y-108138095D01*
X78978571Y-108214285D01*
X78940476Y-108366666D01*
X78940476Y-108557142D01*
X78978571Y-108709523D01*
X79016666Y-108785714D01*
X79054762Y-108823809D01*
X79130952Y-108861904D01*
X79207143Y-108861904D01*
X79283333Y-108823809D01*
X79321428Y-108785714D01*
X79359524Y-108709523D01*
X79397619Y-108557142D01*
X79397619Y-108366666D01*
X79359524Y-108214285D01*
X79321428Y-108138095D01*
X79283333Y-108100000D01*
X79207143Y-108061904D01*
X78445238Y-108061904D02*
X78369047Y-108061904D01*
X78292857Y-108100000D01*
X78254762Y-108138095D01*
X78216666Y-108214285D01*
X78178571Y-108366666D01*
X78178571Y-108557142D01*
X78216666Y-108709523D01*
X78254762Y-108785714D01*
X78292857Y-108823809D01*
X78369047Y-108861904D01*
X78445238Y-108861904D01*
X78521428Y-108823809D01*
X78559524Y-108785714D01*
X78597619Y-108709523D01*
X78635714Y-108557142D01*
X78635714Y-108366666D01*
X78597619Y-108214285D01*
X78559524Y-108138095D01*
X78521428Y-108100000D01*
X78445238Y-108061904D01*
X77835714Y-108328571D02*
X77835714Y-109128571D01*
X77835714Y-108366666D02*
X77759524Y-108328571D01*
X77607143Y-108328571D01*
X77530952Y-108366666D01*
X77492857Y-108404761D01*
X77454762Y-108480952D01*
X77454762Y-108709523D01*
X77492857Y-108785714D01*
X77530952Y-108823809D01*
X77607143Y-108861904D01*
X77759524Y-108861904D01*
X77835714Y-108823809D01*
X77150000Y-108823809D02*
X77073809Y-108861904D01*
X76921428Y-108861904D01*
X76845238Y-108823809D01*
X76807143Y-108747619D01*
X76807143Y-108709523D01*
X76845238Y-108633333D01*
X76921428Y-108595238D01*
X77035714Y-108595238D01*
X77111905Y-108557142D01*
X77150000Y-108480952D01*
X77150000Y-108442857D01*
X77111905Y-108366666D01*
X77035714Y-108328571D01*
X76921428Y-108328571D01*
X76845238Y-108366666D01*
X76464286Y-108861904D02*
X76464286Y-108328571D01*
X76464286Y-108061904D02*
X76502381Y-108100000D01*
X76464286Y-108138095D01*
X76426190Y-108100000D01*
X76464286Y-108061904D01*
X76464286Y-108138095D01*
X90102381Y-110149904D02*
X90102381Y-109349904D01*
X89797619Y-109349904D01*
X89721428Y-109388000D01*
X89683333Y-109426095D01*
X89645238Y-109502285D01*
X89645238Y-109616571D01*
X89683333Y-109692761D01*
X89721428Y-109730857D01*
X89797619Y-109768952D01*
X90102381Y-109768952D01*
X88845238Y-110149904D02*
X89111905Y-109768952D01*
X89302381Y-110149904D02*
X89302381Y-109349904D01*
X88997619Y-109349904D01*
X88921428Y-109388000D01*
X88883333Y-109426095D01*
X88845238Y-109502285D01*
X88845238Y-109616571D01*
X88883333Y-109692761D01*
X88921428Y-109730857D01*
X88997619Y-109768952D01*
X89302381Y-109768952D01*
X88350000Y-109349904D02*
X88197619Y-109349904D01*
X88121428Y-109388000D01*
X88045238Y-109464190D01*
X88007143Y-109616571D01*
X88007143Y-109883238D01*
X88045238Y-110035619D01*
X88121428Y-110111809D01*
X88197619Y-110149904D01*
X88350000Y-110149904D01*
X88426190Y-110111809D01*
X88502381Y-110035619D01*
X88540476Y-109883238D01*
X88540476Y-109616571D01*
X88502381Y-109464190D01*
X88426190Y-109388000D01*
X88350000Y-109349904D01*
X87664286Y-110073714D02*
X87626190Y-110111809D01*
X87664286Y-110149904D01*
X87702381Y-110111809D01*
X87664286Y-110073714D01*
X87664286Y-110149904D01*
X87664286Y-109654666D02*
X87626190Y-109692761D01*
X87664286Y-109730857D01*
X87702381Y-109692761D01*
X87664286Y-109654666D01*
X87664286Y-109730857D01*
X86178571Y-109768952D02*
X86216666Y-109730857D01*
X86292857Y-109692761D01*
X86369047Y-109692761D01*
X86445238Y-109730857D01*
X86483333Y-109768952D01*
X86521428Y-109845142D01*
X86521428Y-109921333D01*
X86483333Y-109997523D01*
X86445238Y-110035619D01*
X86369047Y-110073714D01*
X86292857Y-110073714D01*
X86216666Y-110035619D01*
X86178571Y-109997523D01*
X86178571Y-109692761D02*
X86178571Y-109997523D01*
X86140476Y-110035619D01*
X86102381Y-110035619D01*
X86026190Y-109997523D01*
X85988095Y-109921333D01*
X85988095Y-109730857D01*
X86064286Y-109616571D01*
X86178571Y-109540380D01*
X86330952Y-109502285D01*
X86483333Y-109540380D01*
X86597619Y-109616571D01*
X86673809Y-109730857D01*
X86711905Y-109883238D01*
X86673809Y-110035619D01*
X86597619Y-110149904D01*
X86483333Y-110226095D01*
X86330952Y-110264190D01*
X86178571Y-110226095D01*
X86064286Y-110149904D01*
X85645238Y-110149904D02*
X85645238Y-109616571D01*
X85645238Y-109692761D02*
X85607143Y-109654666D01*
X85530952Y-109616571D01*
X85416666Y-109616571D01*
X85340476Y-109654666D01*
X85302381Y-109730857D01*
X85302381Y-110149904D01*
X85302381Y-109730857D02*
X85264286Y-109654666D01*
X85188095Y-109616571D01*
X85073809Y-109616571D01*
X84997619Y-109654666D01*
X84959524Y-109730857D01*
X84959524Y-110149904D01*
X84578571Y-110149904D02*
X84578571Y-109616571D01*
X84578571Y-109349904D02*
X84616666Y-109388000D01*
X84578571Y-109426095D01*
X84540476Y-109388000D01*
X84578571Y-109349904D01*
X84578571Y-109426095D01*
X84235714Y-110111809D02*
X84159524Y-110149904D01*
X84007143Y-110149904D01*
X83930952Y-110111809D01*
X83892857Y-110035619D01*
X83892857Y-109997523D01*
X83930952Y-109921333D01*
X84007143Y-109883238D01*
X84121428Y-109883238D01*
X84197619Y-109845142D01*
X84235714Y-109768952D01*
X84235714Y-109730857D01*
X84197619Y-109654666D01*
X84121428Y-109616571D01*
X84007143Y-109616571D01*
X83930952Y-109654666D01*
X83664286Y-109616571D02*
X83359524Y-109616571D01*
X83550000Y-109349904D02*
X83550000Y-110035619D01*
X83511905Y-110111809D01*
X83435714Y-110149904D01*
X83359524Y-110149904D01*
X82788095Y-110111809D02*
X82864286Y-110149904D01*
X83016666Y-110149904D01*
X83092857Y-110111809D01*
X83130952Y-110035619D01*
X83130952Y-109730857D01*
X83092857Y-109654666D01*
X83016666Y-109616571D01*
X82864286Y-109616571D01*
X82788095Y-109654666D01*
X82750000Y-109730857D01*
X82750000Y-109807047D01*
X83130952Y-109883238D01*
X82407143Y-110149904D02*
X82407143Y-109616571D01*
X82407143Y-109768952D02*
X82369047Y-109692761D01*
X82330952Y-109654666D01*
X82254762Y-109616571D01*
X82178571Y-109616571D01*
X81569047Y-110149904D02*
X81569047Y-109730857D01*
X81607143Y-109654666D01*
X81683333Y-109616571D01*
X81835714Y-109616571D01*
X81911905Y-109654666D01*
X81569047Y-110111809D02*
X81645238Y-110149904D01*
X81835714Y-110149904D01*
X81911905Y-110111809D01*
X81950000Y-110035619D01*
X81950000Y-109959428D01*
X81911905Y-109883238D01*
X81835714Y-109845142D01*
X81645238Y-109845142D01*
X81569047Y-109807047D01*
X80845238Y-110149904D02*
X80845238Y-109349904D01*
X80845238Y-110111809D02*
X80921428Y-110149904D01*
X81073809Y-110149904D01*
X81150000Y-110111809D01*
X81188095Y-110073714D01*
X81226190Y-109997523D01*
X81226190Y-109768952D01*
X81188095Y-109692761D01*
X81150000Y-109654666D01*
X81073809Y-109616571D01*
X80921428Y-109616571D01*
X80845238Y-109654666D01*
X80121428Y-110149904D02*
X80121428Y-109349904D01*
X80121428Y-110111809D02*
X80197619Y-110149904D01*
X80350000Y-110149904D01*
X80426190Y-110111809D01*
X80464286Y-110073714D01*
X80502381Y-109997523D01*
X80502381Y-109768952D01*
X80464286Y-109692761D01*
X80426190Y-109654666D01*
X80350000Y-109616571D01*
X80197619Y-109616571D01*
X80121428Y-109654666D01*
X79626190Y-110149904D02*
X79702381Y-110111809D01*
X79740476Y-110073714D01*
X79778571Y-109997523D01*
X79778571Y-109768952D01*
X79740476Y-109692761D01*
X79702381Y-109654666D01*
X79626190Y-109616571D01*
X79511905Y-109616571D01*
X79435714Y-109654666D01*
X79397619Y-109692761D01*
X79359524Y-109768952D01*
X79359524Y-109997523D01*
X79397619Y-110073714D01*
X79435714Y-110111809D01*
X79511905Y-110149904D01*
X79626190Y-110149904D01*
X79016666Y-109616571D02*
X79016666Y-110149904D01*
X79016666Y-109692761D02*
X78978571Y-109654666D01*
X78902381Y-109616571D01*
X78788095Y-109616571D01*
X78711905Y-109654666D01*
X78673809Y-109730857D01*
X78673809Y-110149904D01*
X78330952Y-110111809D02*
X78254762Y-110149904D01*
X78102381Y-110149904D01*
X78026190Y-110111809D01*
X77988095Y-110035619D01*
X77988095Y-109997523D01*
X78026190Y-109921333D01*
X78102381Y-109883238D01*
X78216666Y-109883238D01*
X78292857Y-109845142D01*
X78330952Y-109768952D01*
X78330952Y-109730857D01*
X78292857Y-109654666D01*
X78216666Y-109616571D01*
X78102381Y-109616571D01*
X78026190Y-109654666D01*
%LPC*%
D12*
X77160286Y-116250000D03*
D13*
X77160286Y-113710000D03*
X79700286Y-116250000D03*
X79700286Y-113710000D03*
X82240286Y-116250000D03*
X82240286Y-113710000D03*
X84780286Y-116250000D03*
X84780286Y-113710000D03*
D14*
X101026286Y-111165000D03*
D13*
X101026286Y-113705000D03*
X98486286Y-111165000D03*
X98486286Y-113705000D03*
X95946286Y-111165000D03*
X95946286Y-113705000D03*
X93406286Y-111165000D03*
X93406286Y-113705000D03*
M02*
